TexturaLibera.sfdir
StartChar: exclam
Encoding: 33 33 1
Width: 300
Flags: W
HStem: -46 21G<130 170> 626 20G<180 220>
VStem: 94 112<248.664 524.978> 104 92<225 428.518>
LayerCount: 2
Back
SplineSet
125 50 m 29
 175 0 l 1053
125 550 m 5
 125 550 139 520 140 500 c 28
 148 383 150 200 150 200 c 5
 150 200 153 383 160 500 c 28
 162 539 175 600 175 600 c 13
 125 550 l 5
EndSplineSet
Fore
SplineSet
79 25 m 1xc0
 150 96 l 1
 221 25 l 1
 150 -46 l 1
 79 25 l 1xc0
79 525 m 1
 200 646 l 1
 221 625 l 1
 221 625 208 564 206 525 c 0xe0
 199 408 196 225 196 225 c 1
 125 154 l 1
 104 175 l 1xd0
 104 175 102 358 94 475 c 0xe0
 93 495 79 525 79 525 c 1
EndSplineSet
EndChar
StartChar: ampersand
Encoding: 38 38 6
Width: 500
Flags: W
HStem: -46 21G<134.6 195 305 345> 304 92<225 254 346 375> 626 20G<205 265>
VStem: 54 92<85 225 435 475> 254 92<75 304 396 515>
LayerCount: 2
Back
SplineSet
200 350 m 29
 400 350 l 1053
450 100 m 1
 350 0 l 1
 300 50 l 1
 300 550 l 9
 200 600 l 1
 100 500 l 17
 100 400 l 5
 200 350 l 5
 100 250 l 29
 99 50 l 25
 200 0 l 25
 300 100 l 1041
EndSplineSet
Fore
SplineSet
254 396 m 1
 254 515 l 1
 175 554 l 1
 175 554 149 528 146 525 c 2
 146 435 l 1
 225 396 l 1
 254 396 l 1
254 304 m 1
 175 304 l 1
 146 275 l 1
 145 85 l 1
 225 46 l 1
 225 46 251 72 254 75 c 2
 254 304 l 1
254 33 m 1
 175 -46 l 1
 74 4 l 1
 53 25 l 1
 54 225 l 1
 147 318 l 1
 75 354 l 1
 54 375 l 1
 54 475 l 1
 225 646 l 1
 325 596 l 1
 346 575 l 1
 346 396 l 1
 425 396 l 1
 446 375 l 1
 375 304 l 1
 346 304 l 1
 346 75 l 1
 375 46 l 1
 475 146 l 1
 496 125 l 1
 325 -46 l 1
 254 25 l 1
 254 33 l 1
EndSplineSet
EndChar
StartChar: quotesingle
Encoding: 39 39 7
Width: 300
Flags: W
HStem: 379 267
VStem: 54 167
LayerCount: 2
Back
SplineSet
125 600 m 29
 175 550 l 5
 175 500 l 29
 100 425 l 1053
EndSplineSet
Fore
SplineSet
79 575 m 1
 150 646 l 1
 221 575 l 1
 221 525 l 1
 75 379 l 1
 54 400 l 1
 129 475 l 1
 129 525 l 1
 79 575 l 1
EndSplineSet
EndChar
StartChar: comma
Encoding: 44 44 12
Width: 300
Flags: W
HStem: -171 267
VStem: 54 167
LayerCount: 2
Back
SplineSet
125 50 m 25
 175 0 l 1
 175 -50 l 25
 100 -125 l 1049
EndSplineSet
Fore
SplineSet
79 25 m 1
 150 96 l 1
 221 25 l 1
 221 -25 l 1
 75 -171 l 1
 54 -150 l 1
 129 -75 l 1
 129 -25 l 1
 79 25 l 1
EndSplineSet
EndChar
StartChar: slash
Encoding: 47 47 15
Width: 500
Flags: W
HStem: -196 21G<5 45>
LayerCount: 2
Back
SplineSet
50 -150 m 29
 450 700 l 1053
EndSplineSet
Fore
SplineSet
25 -196 m 1
 4 -175 l 1
 404 675 l 1
 475 746 l 1
 496 725 l 1
 96 -125 l 1
 25 -196 l 1
EndSplineSet
EndChar
StartChar: seven
Encoding: 55 55 23
Width: 400
Flags: W
HStem: -196 21G<180 220> 304 92<149.817 277.601> 426 20G<80 160 325 395> 426 20G<80 160 325 395>
VStem: 154 92<-100 88.5176>
LayerCount: 2
Back
SplineSet
175 -100 m 25
 225 -150 l 1049
75 400 m 1
 75 400 137 350 225 350 c 3
 279 350 350 400 350 400 c 1
 350 400 200 276 200 0 c 3
 200 -32 200 -125 201 -125 c 1025
100 125 m 25
 100 125 147 150 175 150 c 24
 219 150 206 125 250 125 c 24
 278 125 325 150 326 150 c 1049
EndSplineSet
Fore
SplineSet
54 100 m 1xe8
 125 171 l 1
 125 171 163 191 191 195 c 1
 210 246 232 286 252 315 c 1
 235 309 216 304 200 304 c 0
 112 304 50 354 50 354 c 1
 29 375 l 1
 100 446 l 1
 100 446 162 396 250 396 c 0
 304 396 375 446 375 446 c 1
 396 425 l 1
 375 403 l 2
 344 368 288 294 261 172 c 1
 265 171 270 171 275 171 c 0
 303 171 350 196 350 196 c 1
 371 175 l 1
 300 104 l 1
 300 104 273 90 248 83 c 1
 247 64 246 45 246 25 c 2
 246 -100 l 1
 271 -125 l 1
 200 -196 l 1
 175 -171 l 1
 154 -150 l 1
 129 -125 l 1
 154 -100 l 1
 154 -25 l 2
 154 22 159 65 166 103 c 1
 162 104 156 104 150 104 c 0
 122 104 75 79 75 79 c 1
 54 100 l 1xe8
EndSplineSet
Substitution2: "Subscript forms-1" seven.inferior
Substitution2: "Superscript forms-1" seven.superior
EndChar
StartChar: greater
Encoding: 62 62 30
Width: 600
Flags: W
HStem: 526 20G<105 165>
LayerCount: 2
Back
SplineSet
100 500 m 25
 500 300 l 25
 100 100 l 1053
EndSplineSet
Fore
SplineSet
54 475 m 1
 125 546 l 1
 525 346 l 1
 546 325 l 1
 475 254 l 1
 75 54 l 1
 54 75 l 1
 125 146 l 1
 408 288 l 1
 75 454 l 1
 54 475 l 1
EndSplineSet
EndChar
StartChar: e
Encoding: 101 101 69
Width: 350
Flags: W
HStem: -46 21G<155 195> 426 20G<205 245> 426 20G<205 245>
VStem: 54 92<167 275>
AnchorPoint: "blwmark" 200 0 basechar 0
AnchorPoint: "abvmark" 200 500 basechar 0
LayerCount: 2
Back
SplineSet
300 100 m 13
 200 0 l 29
 100 100 l 29
 100 300 l 29
 200 400 l 29
 300 300 l 5
 100 100 l 1053
EndSplineSet
Fore
SplineSet
146 125 m 1xd0
 225 46 l 1
 325 146 l 1
 346 125 l 1
 175 -46 l 1
 54 75 l 1
 54 275 l 1
 225 446 l 1
 346 325 l 1
 146 125 l 1xd0
146 167 m 1
 254 275 l 1
 175 354 l 1
 146 325 l 1
 146 167 l 1
EndSplineSet
EndChar
StartChar: q
Encoding: 113 113 81
Width: 400
Flags: W
HStem: -196 21G<255 295> -46 21G<155 195> 426 20G<205 245 304.459 345> 426 20G<205 245 304.459 345>
VStem: 54 92<125 275> 254 92<-125 33 75 327>
AnchorPoint: "abvmark" 225 500 basechar 0
LayerCount: 2
Back
SplineSet
300 100 m 9
 200 0 l 25
 100 100 l 25
 100 300 l 25
 200 400 l 1
 200 400 222 360 250 360 c 24
 278 360 300 400 300 400 c 9
 300 -150 l 1049
EndSplineSet
Fore
SplineSet
254 75 m 1xcc
 254 327 l 1
 246 320 236 314 225 314 c 0
 213 314 203 322 194 330 c 1
 193 330 l 1
 172 351 l 1
 146 325 l 1
 146 125 l 1
 225 46 l 1
 254 75 l 1xcc
254 33 m 1
 175 -46 l 1
 54 75 l 1
 54 275 l 1
 225 446 l 1
 246 425 l 1
 246 425 249 419 254 413 c 0
 261 409 267 406 275 406 c 0
 279 406 284 408 287 409 c 2
 325 446 l 1xec
 346 425 l 1
 346 -125 l 1
 275 -196 l 1
 254 -175 l 1
 254 33 l 1
EndSplineSet
EndChar
StartChar: braceleft
Encoding: 123 123 91
Width: 300
Flags: W
HStem: -196 21G<185 245>
VStem: 104 92<-65 165 375 575>
LayerCount: 2
Back
SplineSet
250 700 m 25
 150 600 l 1
 150 350 l 29
 50 250 l 29
 150 200 l 29
 150 -100 l 1
 250 -150 l 1049
EndSplineSet
Fore
SplineSet
275 746 m 1
 296 725 l 1
 196 625 l 1
 196 375 l 1
 103 282 l 1
 175 246 l 1
 196 225 l 1
 196 -65 l 1
 275 -104 l 1
 296 -125 l 1
 225 -196 l 1
 125 -146 l 1
 104 -125 l 1
 104 165 l 1
 25 204 l 1
 4 225 l 1
 104 325 l 1
 104 575 l 1
 275 746 l 1
EndSplineSet
EndChar
StartChar: braceright
Encoding: 125 125 93
Width: 300
Flags: W
HStem: -196 21G<5 45>
VStem: 104 92<-25 175 385 615>
LayerCount: 2
Back
SplineSet
50 700 m 25
 150 650 l 1
 150 350 l 29
 250 300 l 29
 150 200 l 29
 150 -50 l 1
 50 -150 l 1049
EndSplineSet
Fore
SplineSet
4 675 m 1
 75 746 l 1
 175 696 l 1
 196 675 l 1
 196 385 l 1
 275 346 l 1
 296 325 l 1
 196 225 l 1
 196 -25 l 1
 25 -196 l 1
 4 -175 l 1
 104 -75 l 1
 104 175 l 1
 197 268 l 1
 125 304 l 1
 104 325 l 1
 104 615 l 1
 25 654 l 1
 4 675 l 1
EndSplineSet
EndChar
StartChar: cent
Encoding: 162 162 202
Width: 450
Flags: W
HStem: -196 21G<205 245> 626 20G<255 295>
VStem: 54 92<132 225> 204 92<-125 -32 93 307 432 575>
LayerCount: 2
Back
SplineSet
250 600 m 25
 250 -150 l 1049
400 300 m 9
 250 400 l 25
 100 250 l 25
 100 100 l 25
 250 0 l 25
 400 100 l 1045
EndSplineSet
Fore
SplineSet
204 333 m 1
 182 311 150 279 146 275 c 1
 146 132 l 1
 204 93 l 1
 204 333 l 1
446 325 m 1
 375 254 l 1
 296 307 l 1
 296 60 l 1
 425 146 l 1
 446 125 l 1
 375 54 l 1
 296 1 l 1
 296 -125 l 1
 225 -196 l 1
 204 -175 l 1
 204 -32 l 1
 75 54 l 1
 54 75 l 1
 54 225 l 1
 204 375 l 1
 204 575 l 1
 275 646 l 1
 296 625 l 1
 296 432 l 1
 425 346 l 1
 446 325 l 1
EndSplineSet
EndChar
StartChar: dieresis
Encoding: 168 168 101
Width: 400
Flags: W
HStem: 504 142
LayerCount: 2
Back
SplineSet
275 600 m 29
 325 550 l 1053
75 600 m 29
 125 550 l 1053
EndSplineSet
Fore
SplineSet
29 575 m 1
 100 646 l 1
 171 575 l 1
 100 504 l 1
 29 575 l 1
229 575 m 1
 300 646 l 1
 371 575 l 1
 300 504 l 1
 229 575 l 1
EndSplineSet
EndChar
StartChar: ordfeminine
Encoding: 170 170 210
Width: 400
Flags: W
HStem: 154 92<75 325> 504 21G<80 120> 576 20G<180 204>
VStem: 54 92<400 450> 254 92<346.048 358 400 479 572 633>
LayerCount: 2
Back
SplineSet
50 200 m 25
 350 200 l 1049
125 550 m 17
 100 625 l 1
 175 700 l 1
 300 675 l 1
 300 325 l 1
 325 300 l 1
 375 350 l 1049
300 425 m 25
 175 300 l 1
 100 375 l 1
 100 475 l 1
 175 550 l 1
 175 550 193.963867188 525 250 525 c 3
 269.00390625 525 300 525 300 525 c 1033
EndSplineSet
Fore
SplineSet
254 479 m 1
 225 479 l 2
 179 479 158 496 152 502 c 2
 150 504 l 1
 146 500 l 1
 146 400 l 1
 200 346 l 1
 254 400 l 1
 254 479 l 1
4 175 m 1
 75 246 l 1
 375 246 l 1
 396 225 l 1
 325 154 l 1
 25 154 l 1
 4 175 l 1
100 504 m 1
 79 525 l 1
 54 600 l 1
 200 746 l 1
 325 721 l 1
 346 700 l 1
 346 550 l 1
 346 450 l 1
 346 350 l 2
 346 349 349 347 350 346 c 2
 400 396 l 1
 421 375 l 1
 300 254 l 1
 254 300 l 1
 254 358 l 1
 150 254 l 1
 54 350 l 1
 54 450 l 1
 200 596 l 1
 204 592 l 2
 211 586 226 575 254 572 c 1
 254 633 l 1
 150 654 l 1
 146 650 l 1
 171 575 l 1
 100 504 l 1
EndSplineSet
EndChar
StartChar: logicalnot
Encoding: 172 172 225
Width: 600
Flags: W
HStem: 354 92<125 454>
VStem: 454 92<225 354>
LayerCount: 2
Back
SplineSet
100 400 m 25
 500 400 l 25
 500 200 l 1053
EndSplineSet
Fore
SplineSet
54 375 m 1
 125 446 l 1
 525 446 l 1
 546 425 l 1
 546 225 l 1
 475 154 l 1
 454 175 l 1
 454 354 l 1
 75 354 l 1
 54 375 l 1
EndSplineSet
EndChar
StartChar: macron
Encoding: 175 175 227
Width: 400
Flags: W
HStem: 504 92<100 300>
LayerCount: 2
Back
SplineSet
75 550 m 1
 325 550 l 1053
EndSplineSet
Fore
SplineSet
29 525 m 1
 100 596 l 1
 350 596 l 1
 371 575 l 1
 300 504 l 1
 50 504 l 1
 29 525 l 1
EndSplineSet
EndChar
StartChar: plusminus
Encoding: 177 177 213
Width: 600
Flags: W
HStem: -21 92<125 475> 329 92<125 254 346 475>
VStem: 254 92<200 329 421 550>
LayerCount: 2
Back
SplineSet
100 25 m 29
 500 25 l 1053
300 575 m 25
 300 175 l 1049
100 375 m 25
 500 375 l 1049
EndSplineSet
Fore
SplineSet
54 0 m 1
 125 71 l 1
 525 71 l 1
 546 50 l 1
 475 -21 l 1
 75 -21 l 1
 54 0 l 1
54 350 m 1
 125 421 l 1
 254 421 l 1
 254 550 l 1
 325 621 l 1
 346 600 l 1
 346 421 l 1
 525 421 l 1
 546 400 l 1
 475 329 l 1
 346 329 l 1
 346 200 l 1
 275 129 l 1
 254 150 l 1
 254 329 l 1
 75 329 l 1
 54 350 l 1
EndSplineSet
EndChar
StartChar: paragraph
Encoding: 182 182 226
Width: 600
Flags: W
HStem: -196 92<365 436.568> 54 92<189.435 258.424> 554 92<217.937 310.551>
VStem: 54 92<207.288 459.452> 335 30<-104 152 186 530> 429 92<-50 525>
LayerCount: 2
Back
SplineSet
300 150 m 17
 300 150 290.06919394 100 225 100 c 3
 140 100 100 177.895380655 100 350 c 3
 100 469 141.905336974 600 274 600 c 3
 310 600 328 575 350 575 c 3
 378 575 400 600 401 600 c 1025
350 550 m 1
 350 -125 l 1025
525 600 m 1
 475 550 l 1
 475 -75 l 1025
550 -200 m 1
 550 -200 423 -150 325 -150 c 3
 256 -150 225 -200 225 -200 c 1025
EndSplineSet
Fore
SplineSet
335 530 m 2
 332 529 328 529 325 529 c 0
 303 529 285 554 249 554 c 0
 223 554 200 549 181 540 c 1
 156 493 146 433 146 375 c 0
 146 273 160 204 190 164 c 1
 206 152 227 146 250 146 c 0
 261 146 270 147 279 150 c 1
 325 196 l 1
 335 186 l 1
 335 530 l 2
596 -175 m 1
 525 -246 l 1
 525 -246 398 -196 300 -196 c 0
 267 -196 244 -208 228 -219 c 2
 200 -246 l 1
 179 -225 l 1
 179 -225 183 -219 191 -211 c 1
 191 -210 l 1
 262 -139 l 2
 275 -126 299 -109 335 -105 c 1
 335 152 l 2
 333 150 331 148 329 146 c 2
 258 75 l 2
 247 64 229 54 200 54 c 0
 171 54 148 63 129 82 c 2
 108 103 l 1
 107 103 l 1
 71 140 54 212 54 325 c 0
 54 402 72 485 120 533 c 2
 191 603 l 2
 217 629 252 646 299 646 c 0
 335 646 353 621 375 621 c 0
 403 621 425 646 426 646 c 2
 447 625 l 1
 376 554 l 1
 376 554 372 550 365 545 c 1
 365 -104 l 1
 391 -105 419 -110 445 -116 c 1
 429 -100 l 1
 429 525 l 1
 550 646 l 1
 571 625 l 1
 521 575 l 1
 521 -50 l 1
 454 -117 l 1
 520 -132 575 -154 575 -154 c 1
 596 -175 l 1
EndSplineSet
EndChar
StartChar: ordmasculine
Encoding: 186 186 211
Width: 400
Flags: W
HStem: 154 92<75 325>
VStem: 54 92<385.195 575> 254 92<425 614.805>
LayerCount: 2
Back
SplineSet
200 700 m 25
 100 600 l 25
 100 400 l 25
 200 300 l 25
 300 400 l 25
 300 600 l 25
 200 700 l 25
50 200 m 25
 350 200 l 1053
EndSplineSet
Fore
SplineSet
54 575 m 1
 225 746 l 1
 346 625 l 1
 346 425 l 1
 175 254 l 1
 54 375 l 1
 54 575 l 1
175 654 m 1
 146 625 l 1
 146 425 l 2
 146 383 202 369 225 346 c 1
 254 375 l 1
 254 575 l 2
 254 617 198 631 175 654 c 1
4 175 m 1
 75 246 l 1
 375 246 l 1
 396 225 l 1
 325 154 l 1
 25 154 l 1
 4 175 l 1
EndSplineSet
EndChar
StartChar: guillemotright
Encoding: 187 187 216
Width: 550
Flags: W
LayerCount: 2
Back
SplineSet
325 325 m 21
 325 325 346.540039062 295.372070312 375 275 c 4
 470 207 500 200 500 200 c 5
 500 200 436 174 350 100 c 4
 328.924804688 81.8662109375 300 50 300 50 c 1037
75 325 m 17
 75 325 96.5400390625 295.372070312 125 275 c 0
 220 207 250 200 250 200 c 1
 250 200 186 174 100 100 c 0
 78.9248046875 81.8662109375 50 50 50 50 c 1033
EndSplineSet
Fore
SplineSet
350 371 m 1
 371 350 l 1
 371 350 377 342 385 333 c 0
 390 329 395 325 400 321 c 0
 462 277 496 259 512 251 c 0
 521 247 525 246 525 246 c 1
 546 225 l 1
 475 154 l 1
 475 154 411 128 325 54 c 0
 314 44 290 19 275 4 c 1
 254 25 l 1
 254 25 266 39 281 54 c 2
 352 125 l 2
 359 133 368 140 375 146 c 0
 391 160 406 171 420 182 c 1
 402 193 379 208 350 229 c 0
 341 236 332 244 325 251 c 2
 304 272 l 2
 289 287 279 300 279 300 c 1
 350 371 l 1
100 371 m 1
 121 350 l 1
 121 350 127 343 135 333 c 0
 140 329 145 325 150 321 c 0
 212 277 246 259 262 251 c 0
 271 247 275 246 275 246 c 1
 296 225 l 1
 225 154 l 1
 225 154 161 128 75 54 c 0
 64 44 40 19 25 4 c 1
 4 25 l 1
 4 25 16 39 31 54 c 2
 102 125 l 2
 109 133 118 140 125 146 c 0
 141 160 156 171 170 182 c 1
 152 193 129 208 100 229 c 0
 91 236 82 244 75 251 c 2
 54 272 l 2
 39 287 29 300 29 300 c 1
 100 371 l 1
EndSplineSet
EndChar
StartChar: Thorn
Encoding: 222 222 178
Width: 700
Flags: W
HStem: -196 92<28.5479 143.184> 426 20G<380 436> 426 20G<380 436> 504 21G<5 45> 554 92<92.5 160.551> 554 63<92 121.608>
VStem: 185 30<-121 14 36 530> 279 92<-50 41 146 343 417 525> 554 92<175 241>
AnchorPoint: "abvmark" 400 700 basechar 0
LayerCount: 2
Back
SplineSet
250 50 m 25
 250 50 306 100 350 100 c 27
 421 100 500 50 500 50 c 1
 600 150 l 1
 600 275 l 1
 375 400 l 1
 325 350 l 1025
50 550 m 1
 50 550 84 600 124 600 c 3
 160 600 178 575 200 575 c 3
 228 575 250 600 251 600 c 1025
200 550 m 1
 200 -125 l 1025
375 600 m 1
 325 550 l 1
 325 -75 l 1
 200 -200 l 1
 200 -200 173 -150 75 -150 c 3
 6 -150 -25 -200 -23 -200 c 1033
EndSplineSet
Fore
SplineSet
371 343 m 1x9380
 371 146 l 2
 372 146 374 146 375 146 c 0
 446 146 525 96 525 96 c 1
 525 96 551 122 554 125 c 2
 554 241 l 1
 371 343 l 1x9380
215 -142 m 1
 226 -153 l 1
 279 -100 l 1
 279 41 l 1
 250 26 225 4 225 4 c 1
 215 14 l 1
 215 -142 l 1
-17 -215 m 1
 -48 -246 l 1
 -69 -225 l 1
 -69 -225 -65 -217 -57 -209 c 2
 14 -138 l 2
 29 -123 57 -104 100 -104 c 0
 139 -104 166 -112 185 -121 c 1
 185 530 l 2
 182 529 178 529 175 529 c 0
 153 529 135 554 99 554 c 0xdb80
 86 554 73 549 62 541 c 2
 25 504 l 1
 4 525 l 1
 4 525 11 535 22 546 c 2
 92 617 l 1
 93 617 l 1x9780
 107 631 127 646 149 646 c 0
 185 646 203 621 225 621 c 0
 253 621 275 646 276 646 c 2x9b80
 297 625 l 1
 226 554 l 1x9780
 226 554 222 550 215 545 c 1
 215 36 l 1
 275 96 l 1
 275 96 276 98 279 100 c 2
 279 325 l 1
 279 525 l 1
 400 646 l 1
 421 625 l 1
 371 575 l 1
 371 417 l 1
 400 446 l 1xdb80
 625 321 l 1
 646 300 l 1
 646 175 l 1
 475 4 l 1
 475 4 426 35 371 48 c 1
 371 -50 l 1
 175 -246 l 1
 154 -225 l 1
 154 -225 153 -225 153 -224 c 0
 134 -210 102 -196 50 -196 c 0
 21 -196 -1 -205 -17 -215 c 1
EndSplineSet
EndChar
StartChar: germandbls
Encoding: 223 223 131
Width: 500
Flags: W
HStem: -246 92<29.4436 68.3467> -196 92<-82.5 -9.5> 304 92<224.136 308.889> 426 20G<171 222.2 355 395> 426 20G<171 222.2 355 395> 554 21G<263.5 289> 604 42<328.717 351>
VStem: 79 92<-125 -109 8.04745 327 442 525> 354 92<-125 68>
AnchorPoint: "abvmark" 300 750 basechar 0
LayerCount: 2
Back
SplineSet
150 400 m 5
 150 400 224 350 268 350 c 7
 342 350 350 400 350 400 c 5
 400 350 l 5
 250 200 l 5
 400 100 l 5
 400 -150 l 5
 400 -150 353.000180261 -200 325 -200 c 5
 259 -113 125 0 125 0 c 1029
-125 -200 m 21
 -125 -200 -88 -150 -50 -150 c 12
 -19 -150 18 -200 50 -200 c 28
 78 -200 125 -150 125 -150 c 5
 125 550 l 5
 225 650 l 21
 225 650 256 600 300 600 c 28
 328 600 375 650 376 650 c 1037
EndSplineSet
Fore
SplineSet
171 327 m 1xa780
 171 28 l 1
 193 8 231 -26 268 -63 c 2
 290 -85 l 2
 313 -108 334 -130 354 -154 c 1
 354 68 l 1
 225 154 l 1
 204 175 l 1
 354 325 l 1
 331 348 l 1
 310 327 l 2
 298 315 278 304 243 304 c 0
 222 304 194 315 171 327 c 1xa780
-150 -246 m 1
 -171 -225 l 1
 -171 -225 -165 -217 -155 -207 c 2
 -84 -136 l 1
 -84 -135 l 1
 -69 -120 -47 -104 -25 -104 c 0x6780
 6 -104 43 -154 75 -154 c 0
 76 -154 78 -154 79 -154 c 2
 79 -25 l 1
 79 525 l 1
 250 696 l 1
 271 675 l 1
 271 675 274 670 279 664 c 0
 291 654 307 646 325 646 c 0
 353 646 400 696 401 696 c 2
 422 675 l 1
 351 604 l 2
 350 604 303 554 275 554 c 0
 252 554 232 568 219 581 c 2
 218 582 l 1
 198 602 l 1
 171 575 l 1
 171 442 l 1
 175 446 l 1
 175 446 249 396 293 396 c 0
 308 396 321 398 330 401 c 1
 375 446 l 1
 446 375 l 1
 300 229 l 1
 425 146 l 1
 446 125 l 1
 446 -125 l 1
 446 -125 445 -126 442 -129 c 2
 371 -200 l 2
 368 -203 363 -209 357 -214 c 0
 341 -228 317 -246 300 -246 c 1
 279 -225 l 1
 260 -199 234 -171 208 -145 c 0
 195 -132 183 -120 171 -109 c 1
 171 -125 l 1
 171 -125 170 -126 167 -129 c 2
 96 -200 l 2
 84 -212 48 -246 25 -246 c 0xb780
 -7 -246 -44 -196 -75 -196 c 0x6780
 -90 -196 -105 -204 -117 -213 c 2
 -150 -246 l 1
EndSplineSet
EndChar
StartChar: divide
Encoding: 247 247 224
Width: 600
Flags: W
HStem: 254 92<125 475> 551 20G<280 320>
LayerCount: 2
Back
SplineSet
275 125 m 25
 325 75 l 1049
100 300 m 25
 500 300 l 1049
275 525 m 25
 325 475 l 1049
EndSplineSet
Fore
SplineSet
229 100 m 1
 300 171 l 1
 371 100 l 1
 300 29 l 1
 229 100 l 1
54 275 m 1
 125 346 l 1
 525 346 l 1
 546 325 l 1
 475 254 l 1
 75 254 l 1
 54 275 l 1
229 500 m 1
 300 571 l 1
 371 500 l 1
 300 429 l 1
 229 500 l 1
EndSplineSet
EndChar
StartChar: lslash
Encoding: 322 322 291
Width: 200
Flags: W
HStem: -46 21G<80 120> 426 20G<180 220> 426 20G<180 220> 651 20G<80 120>
VStem: 54 92<50 258 300 350 392 575>
LayerCount: 2
Back
SplineSet
175 400 m 25
 25 250 l 1049
75 50 m 25
 125 0 l 25
 175 50 l 1049
75 625 m 25
 125 575 l 1049
100 600 m 9
 100 25 l 1049
EndSplineSet
Fore
SplineSet
29 600 m 1xd8
 100 671 l 1
 125 646 l 1
 146 625 l 1
 171 600 l 1
 146 575 l 1
 146 392 l 1
 200 446 l 1
 221 425 l 1
 146 350 l 1
 146 50 l 1
 150 46 l 1
 200 96 l 1
 221 75 l 1
 100 -46 l 1
 75 -21 l 1
 29 25 l 1
 54 50 l 1
 54 258 l 1
 0 204 l 1
 -21 225 l 1
 54 300 l 1
 54 575 l 1
 29 600 l 1xd8
EndSplineSet
EndChar
StartChar: Eng
Encoding: 330 330 599
Width: 700
Flags: W
HStem: -196 92<114.309 388.291> -46 21G<5 45.7407 230 270> 4 92<103.818 184.356> 504 21G<5 45> 554 92<92.5 160.551> 554 63<92 121.608>
VStem: 185 30<96 530> 279 92<75 525> 529 92<-75 442>
AnchorPoint: "abvmark" 400 700 basechar 0
LayerCount: 2
Back
SplineSet
50 550 m 1
 50 550 84 600 124 600 c 3
 160 600 178 575 200 575 c 3
 228 575 250 600 251 600 c 1025
200 550 m 1
 200 75 l 1025
50 0 m 17
 50 0 81 50 150 50 c 3
 248 50 275 0 275 0 c 1
 325 50 l 1
 325 550 l 1
 375 600 l 1
 575 475 l 1
 575 -100 l 1
 475 -200 l 1
 475 -200 412 -150 250 -150 c 3
 66 -150 50 -200 50 -200 c 1033
EndSplineSet
Fore
SplineSet
25 -46 m 1xfb80
 4 -25 l 1
 4 -25 8 -18 16 -10 c 2
 87 61 l 2
 102 76 131 96 175 96 c 0
 179 96 182 96 185 96 c 2
 185 530 l 2
 182 529 178 529 175 529 c 0
 153 529 135 554 99 554 c 0xfb80
 86 554 73 549 62 541 c 2
 25 504 l 1
 4 525 l 1
 4 525 11 535 22 546 c 2
 92 617 l 2
 93 617 l 0xf780
 107 631 127 646 149 646 c 0
 185 646 203 621 225 621 c 0
 253 621 275 646 276 646 c 2xfb80
 297 625 l 1
 226 554 l 2xf780
 226 554 222 550 215 545 c 1
 215 93 l 1
 246 88 266 76 279 67 c 1
 279 525 l 1
 400 646 l 1
 600 521 l 1
 621 500 l 1
 621 -75 l 1
 450 -246 l 1
 450 -246 387 -196 225 -196 c 0
 115 -196 65 -214 43 -228 c 1
 25 -246 l 1
 4 -225 l 2
 4 -225 5 -221 10 -216 c 2
 11 -216 l 2
 81 -145 l 2
 95 -131 141 -104 275 -104 c 0
 437 -104 500 -154 500 -154 c 1
 529 -125 l 1
 529 442 l 1
 371 541 l 1
 371 75 l 1
 250 -46 l 1
 229 -25 l 1
 229 -25 228 -25 228 -24 c 0
 210 -11 177 4 125 4 c 0
 93 4 69 -7 53 -19 c 2
 25 -46 l 1xfb80
EndSplineSet
EndChar
StartChar: wynn
Encoding: 447 447 877
Width: 400
Flags: W
HStem: -196 21G<55 95> 426 20G<80 120 205 245> 426 20G<80 120 205 245>
VStem: 54 92<-125 -67 -25 25 67 325> 254 92<225 314.805>
AnchorPoint: "abvmark" 200 500 basechar 0
LayerCount: 2
Back
SplineSet
50 -50 m 9
 300 200 l 1
 300 300 l 25
 200 400 l 1
 100 300 l 1049
75 400 m 25
 125 350 l 1049
100 375 m 1
 100 -150 l 1025
EndSplineSet
Fore
SplineSet
29 375 m 1xd8
 100 446 l 1
 125 421 l 1
 146 400 l 1
 162 383 l 1
 225 446 l 1
 346 325 l 1
 346 225 l 1
 146 25 l 1
 146 -125 l 1
 75 -196 l 1
 54 -175 l 1
 54 -67 l 1
 25 -96 l 1
 4 -75 l 1
 54 -25 l 1
 54 275 l 1
 54 350 l 1
 29 375 l 1xd8
146 325 m 1
 146 67 l 1
 254 175 l 1
 254 275 l 2
 254 317 198 331 175 354 c 1
 146 325 l 1
EndSplineSet
EndChar
StartChar: Rsmallcap
Encoding: 640 640 854
Width: 450
Flags: W
HStem: -46 21G<80 120 305 345> 426 20G<80 120 205 255> 426 20G<80 120 205 255>
VStem: 54 92<50 325>
AnchorPoint: "blwmark" 225 0 basechar 0
AnchorPoint: "abvmark" 200 500 basechar 0
LayerCount: 2
Back
SplineSet
75 50 m 25
 125 0 l 1049
75 400 m 25
 125 350 l 1049
100 375 m 9
 100 25 l 1025
400 50 m 25
 350 0 l 1
 350 0 331 82 300 125 c 24
 280 154 225 175 225 175 c 1025
200 150 m 1
 350 300 l 1
 200 400 l 1
 100 300 l 1049
EndSplineSet
Fore
SplineSet
175 104 m 1xd0
 154 125 l 1
 300 271 l 1
 175 354 l 2
 175 354 149 328 146 325 c 2
 146 50 l 1
 171 25 l 1
 100 -46 l 1
 75 -21 l 1
 29 25 l 1
 54 50 l 1
 54 275 l 1
 54 350 l 1
 29 375 l 1
 100 446 l 1
 125 421 l 1
 146 400 l 1
 162 383 l 1
 225 446 l 1
 375 346 l 1
 396 325 l 1
 279 207 l 1
 292 200 305 191 316 181 c 0
 317 181 l 1
 338 159 l 2
 341 156 344 153 346 150 c 0
 364 125 378 86 387 58 c 1
 425 96 l 1
 446 75 l 1
 325 -46 l 1
 304 -25 l 1
 304 -25 285 56 255 99 c 1
 231 117 200 129 200 129 c 2
 175 104 l 1xd0
EndSplineSet
EndChar
StartChar: circumflex
Encoding: 710 710 100
Width: 400
Flags: W
HStem: 479 267
VStem: 54 292
LayerCount: 2
Back
SplineSet
300 525 m 25
 300 525 200 600 200 700 c 5
 200 550 100 525 100 525 c 1025
EndSplineSet
Fore
SplineSet
346 550 m 1
 275 479 l 1
 275 479 264 487 249 502 c 2
 228 523 l 2
 216 535 201 553 188 573 c 1
 125 510 l 2
 100 485 75 479 75 479 c 1
 54 500 l 1
 125 571 l 1
 125 571 128 572 134 574 c 0
 135 576 135 578 136 580 c 0
 147 604 154 635 154 675 c 1
 225 746 l 1
 246 725 l 1
 246 704 250 685 257 667 c 0
 270 633 291 605 310 584 c 0
 319 576 325 571 325 571 c 1
 346 550 l 1
EndSplineSet
EndChar
StartChar: breve
Encoding: 728 728 265
Width: 400
Flags: W
HStem: 479 92<164.506 256.5> 626 20G<105 145 329.661 370>
VStem: 54 317
LayerCount: 2
Back
SplineSet
100 600 m 17
 100 600 114.77749776 525 225 525 c 3
 270 525 325 600 325 600 c 1033
EndSplineSet
Fore
SplineSet
125 646 m 1
 146 625 l 1
 146 625 149 611 160 596 c 1
 179 582 207 571 250 571 c 0
 263 571 278 579 290 587 c 2
 350 646 l 1
 371 625 l 1
 371 625 358 609 341 591 c 2
 271 520 l 2
 251 500 224 479 200 479 c 0
 147 479 117 496 99 514 c 2
 78 535 l 2
 58 555 54 575 54 575 c 1
 125 646 l 1
EndSplineSet
EndChar
StartChar: dotaccent
Encoding: 729 729 269
Width: 400
Flags: W
HStem: 504 142
VStem: 129 142
LayerCount: 2
Back
SplineSet
175 600 m 25
 225 550 l 1049
EndSplineSet
Fore
SplineSet
129 575 m 1
 200 646 l 1
 271 575 l 1
 200 504 l 1
 129 575 l 1
EndSplineSet
EndChar
StartChar: ring
Encoding: 730 730 184
Width: 400
Flags: W
HStem: 488 74<169.375 262> 688 74<138 230.625>
VStem: 63 74<594.375 687> 263 74<563 655.625>
LayerCount: 2
Back
SplineSet
100 650 m 4
 100 710 115 725 175 725 c 4
 250 725 300 675 300 600 c 4
 300 540 285 525 225 525 c 4
 150 525 100 575 100 650 c 4
EndSplineSet
Fore
SplineSet
137 669 m 0
 137 637 146 609 163 588 c 1
 183 572 212 562 244 562 c 0
 251 562 256 563 262 563 c 1
 262 568 263 575 263 581 c 0
 263 613 254 641 237 662 c 1
 217 678 188 688 156 688 c 0
 149 688 144 687 138 687 c 1
 138 682 137 675 137 669 c 0
63 631 m 0
 63 661 67 680 78 691 c 2
 135 747 l 2
 146 758 164 762 194 762 c 0
 232 762 263 750 285 728 c 2
 303 710 l 2
 325 688 337 657 337 619 c 0
 337 589 333 570 322 559 c 2
 265 503 l 2
 254 492 236 488 206 488 c 0
 168 488 137 500 115 522 c 2
 97 540 l 2
 75 562 63 593 63 631 c 0
EndSplineSet
EndChar
StartChar: ringbelow
Encoding: 755 755 886
Width: 400
Flags: W
HStem: -321 92<173 253.604> -121 92<146.396 227>
VStem: 54 92<-201.578 -121.396> 254 92<-228.604 -148.422>
LayerCount: 2
Back
SplineSet
100 -150 m 4
 100 -90 115 -75 175 -75 c 4
 250 -75 300 -125 300 -200 c 4
 300 -260 285 -275 225 -275 c 4
 150 -275 100 -225 100 -150 c 4
EndSplineSet
Fore
SplineSet
54 -175 m 0
 54 -145 58 -126 69 -115 c 2
 140 -44 l 2
 151 -33 170 -29 200 -29 c 0
 238 -29 268 -42 290 -64 c 2
 312 -85 l 2
 334 -107 346 -138 346 -175 c 0
 346 -205 342 -224 331 -235 c 2
 260 -306 l 2
 249 -317 230 -321 200 -321 c 0
 162 -321 132 -308 110 -286 c 2
 88 -265 l 2
 66 -243 54 -212 54 -175 c 0
146 -125 m 0
 146 -156 154 -184 170 -205 c 1
 191 -220 219 -229 250 -229 c 0
 252 -229 252 -229 254 -229 c 1
 254 -228 254 -226 254 -225 c 0
 254 -194 246 -166 230 -145 c 1
 209 -130 181 -121 150 -121 c 0
 148 -121 148 -121 146 -121 c 1
 146 -122 146 -124 146 -125 c 0
EndSplineSet
EndChar
StartChar: dotbelowcmb
Encoding: 803 803 357
Width: 0
VWidth: 400
Flags: W
HStem: -196 142
VStem: -271 142
AnchorPoint: "blwmark" -200 0 mark 0
LayerCount: 2
Back
SplineSet
-225 -100 m 29
 -175 -150 l 1053
EndSplineSet
Fore
SplineSet
-271 -125 m 1
 -200 -54 l 1
 -129 -125 l 1
 -200 -196 l 1
 -271 -125 l 1
EndSplineSet
EndChar
StartChar: breveinvertedbelowcmb
Encoding: 815 815 537
Width: 0
VWidth: 400
Flags: W
HStem: -171 92<-231.5 -139.506>
VStem: -346 317
AnchorPoint: "blwmark" -200 0 mark 0
LayerCount: 2
Back
SplineSet
-75 -200 m 21
 -75 -200 -89.77734375 -125 -200 -125 c 7
 -245 -125 -300 -200 -300 -200 c 1037
EndSplineSet
Fore
SplineSet
-100 -246 m 1
 -121 -225 l 1
 -121 -225 -124 -211 -135 -196 c 1
 -154 -182 -182 -171 -225 -171 c 0
 -238 -171 -253 -179 -265 -187 c 2
 -325 -246 l 1
 -346 -225 l 1
 -346 -225 -333 -209 -316 -191 c 2
 -246 -120 l 2
 -226 -100 -199 -79 -175 -79 c 0
 -122 -79 -92 -96 -74 -114 c 2
 -53 -135 l 2
 -33 -155 -29 -175 -29 -175 c 1
 -100 -246 l 1
EndSplineSet
EndChar
StartChar: tridotright
Encoding: 4347 4347 895
Width: 500
Flags: W
HStem: -46 21G<130 170>
LayerCount: 2
Back
SplineSet
375 200 m 25
 425 150 l 1049
125 350 m 25
 175 300 l 1049
125 50 m 25
 175 0 l 1049
EndSplineSet
Fore
SplineSet
79 25 m 1
 150 96 l 1
 221 25 l 1
 150 -46 l 1
 79 25 l 1
79 325 m 1
 150 396 l 1
 221 325 l 1
 150 254 l 1
 79 325 l 1
329 175 m 1
 400 246 l 1
 471 175 l 1
 400 104 l 1
 329 175 l 1
EndSplineSet
EndChar
StartChar: Germandbls
Encoding: 7838 7838 136
Width: 700
Flags: W
HStem: -171 92<268.005 426.484> -46 21G<5 45.7407 230 270> 4 92<103.818 184.356> 504 21G<5 45> 554 92<92.5 160.551> 554 63<92 121.608>
VStem: 185 30<96 530> 279 92<75 525> 554 92<-100 190 400 441>
AnchorPoint: "abvmark" 400 700 basechar 0
LayerCount: 2
Back
SplineSet
50 0 m 17
 50 0 81 50 150 50 c 3
 248 50 275 0 275 0 c 1
 325 50 l 1
 325 550 l 1
 375 600 l 1
 600 475 l 1
 600 375 l 5
 500 275 l 13
 600 225 l 29
 600 -125 l 25
 525 -200 l 1
 499 -160 416.752929688 -125 350 -125 c 3
 221.902380975 -125 175 -200 175 -200 c 1025
50 550 m 1
 50 550 84 600 124 600 c 3
 160 600 178 575 200 575 c 3
 228 575 250 600 251 600 c 1025
200 550 m 1
 200 75 l 1025
EndSplineSet
Fore
SplineSet
25 504 m 1xfb80
 4 525 l 1
 4 525 11 535 22 546 c 2
 92 617 l 1
 93 617 l 1xf780
 107 631 127 646 149 646 c 0
 185 646 203 621 225 621 c 0
 253 621 275 646 276 646 c 2xfb80
 297 625 l 1
 226 554 l 1xf780
 226 554 222 550 215 545 c 1
 215 93 l 1
 246 88 266 76 279 67 c 1
 279 525 l 1
 400 646 l 1
 625 521 l 1
 646 500 l 1
 646 400 l 1
 553 307 l 1
 625 271 l 1
 646 250 l 1
 646 -100 l 1
 500 -246 l 1
 479 -225 l 2
 478 -224 478 -222 477 -221 c 0
 440 -192 378 -171 325 -171 c 0
 255 -171 210 -193 183 -213 c 1
 150 -246 l 1
 129 -225 l 1
 129 -225 133 -218 143 -208 c 2
 214 -137 l 2
 236 -115 286 -79 375 -79 c 0
 434 -79 504 -106 538 -140 c 2
 551 -153 l 1
 554 -150 l 1
 554 190 l 1
 475 229 l 1
 454 250 l 1
 554 350 l 1
 554 441 l 1
 371 543 l 1
 371 75 l 1
 250 -46 l 1
 229 -25 l 1
 229 -25 228 -25 228 -24 c 0
 210 -11 177 4 125 4 c 0
 93 4 69 -7 53 -19 c 2
 25 -46 l 1
 4 -25 l 1
 4 -25 8 -18 16 -10 c 2
 87 61 l 2
 102 76 131 96 175 96 c 0
 179 96 182 96 185 96 c 2
 185 530 l 2
 182 529 178 529 175 529 c 0
 153 529 135 554 99 554 c 0
 86 554 73 549 62 541 c 2
 25 504 l 1xfb80
EndSplineSet
EndChar
StartChar: figuredash
Encoding: 8210 8210 908
Width: 400
Flags: W
HStem: 154 92<125 275>
VStem: 54 292
LayerCount: 2
Back
SplineSet
100 200 m 25
 300 200 l 1049
EndSplineSet
Fore
SplineSet
54 175 m 1
 125 246 l 1
 325 246 l 1
 346 225 l 1
 275 154 l 1
 75 154 l 1
 54 175 l 1
EndSplineSet
EndChar
StartChar: emdash
Encoding: 8212 8212 258
Width: 600
Flags: W
HStem: 154 92<75 525>
LayerCount: 2
Back
SplineSet
50 200 m 25
 550 200 l 1049
EndSplineSet
Fore
SplineSet
4 175 m 1
 75 246 l 1
 575 246 l 1
 596 225 l 1
 525 154 l 1
 25 154 l 1
 4 175 l 1
EndSplineSet
EndChar
StartChar: horizontalbar
Encoding: 8213 8213 909
Width: 700
Flags: W
HStem: 154 92<75 625>
LayerCount: 2
Back
SplineSet
50 200 m 25
 650 200 l 1049
EndSplineSet
Fore
SplineSet
4 175 m 1
 75 246 l 1
 675 246 l 1
 696 225 l 1
 625 154 l 1
 25 154 l 1
 4 175 l 1
EndSplineSet
EndChar
StartChar: quotereversed
Encoding: 8219 8219 928
Width: 300
Flags: W
HStem: 379 267
VStem: 79 167
LayerCount: 2
Back
SplineSet
175 600 m 29
 125 550 l 5
 125 500 l 29
 200 425 l 1053
EndSplineSet
Fore
SplineSet
150 646 m 1
 221 575 l 1
 171 525 l 1
 171 475 l 2
 171 475 174 472 175 471 c 2
 246 400 l 1
 225 379 l 1
 79 525 l 1
 79 575 l 1
 150 646 l 1
EndSplineSet
EndChar
StartChar: quotedblleft
Encoding: 8220 8220 251
Width: 500
Flags: W
HStem: 379 267
LayerCount: 2
Back
SplineSet
175 425 m 29
 125 475 l 5
 125 525 l 29
 200 600 l 1053
375 425 m 29
 325 475 l 5
 325 525 l 29
 400 600 l 1053
EndSplineSet
Fore
SplineSet
221 450 m 1
 150 379 l 1
 79 450 l 1
 79 500 l 1
 225 646 l 1
 246 625 l 1
 171 550 l 1
 171 500 l 1
 221 450 l 1
421 450 m 1
 350 379 l 1
 279 450 l 1
 279 500 l 1
 425 646 l 1
 446 625 l 1
 371 550 l 1
 371 500 l 1
 421 450 l 1
EndSplineSet
EndChar
StartChar: quotedblrev
Encoding: 8223 8223 929
Width: 500
Flags: W
HStem: 379 267
LayerCount: 2
Back
SplineSet
175 600 m 29
 125 550 l 5
 125 500 l 29
 200 425 l 1053
375 600 m 29
 325 550 l 5
 325 500 l 29
 400 425 l 1053
EndSplineSet
Fore
SplineSet
350 646 m 1
 421 575 l 1
 371 525 l 1
 371 475 l 1
 371 475 374 472 375 471 c 2
 446 400 l 1
 425 379 l 1
 279 525 l 1
 279 575 l 1
 350 646 l 1
150 646 m 1
 221 575 l 1
 171 525 l 1
 171 475 l 1
 171 475 174 472 175 471 c 2
 246 400 l 1
 225 379 l 1
 79 525 l 1
 79 575 l 1
 150 646 l 1
EndSplineSet
EndChar
StartChar: daggerdbl
Encoding: 8225 8225 263
Width: 400
Flags: W
HStem: -46 21G<55 149 305 345> 426 20G<55 95 251 345> 426 20G<55 95 251 345> 626 20G<230 270>
VStem: 151 98<-124.978 -28 77 323 428 524.978>
LayerCount: 2
Back
SplineSet
50 50 m 25
 100 0 l 25
 300 50 l 25
 350 0 l 1049
50 400 m 25
 100 350 l 25
 300 400 l 25
 350 350 l 1049
175 550 m 1
 175 550 189 520 190 500 c 24
 198 383 200 200 200 200 c 1
 200 200 203 383 210 500 c 24
 212 539 225 600 225 600 c 9
 175 550 l 1
225 -150 m 1
 225 -150 211 -120 210 -100 c 24
 202 17 200 200 200 200 c 1
 200 200 197 17 190 -100 c 24
 188 -139 175 -200 175 -200 c 9
 225 -150 l 1
EndSplineSet
Fore
SplineSet
271 -125 m 1xd8
 150 -246 l 1
 129 -225 l 1
 129 -225 142 -164 144 -125 c 0
 146 -95 148 -62 149 -28 c 1
 75 -46 l 1
 4 25 l 1
 75 96 l 1
 125 46 l 1
 151 53 l 1
 153 121 154 175 154 175 c 1
 154 175 153 243 151 323 c 1
 75 304 l 1
 4 375 l 1
 75 446 l 1
 125 396 l 1
 148 402 l 1
 147 428 146 452 144 475 c 0
 143 495 129 525 129 525 c 1
 250 646 l 1
 271 625 l 1
 271 625 258 564 256 525 c 0
 254 495 252 462 251 428 c 1
 325 446 l 1
 396 375 l 1
 325 304 l 1
 275 354 l 1
 249 347 l 1
 247 279 246 225 246 225 c 1
 246 225 247 157 249 77 c 1
 325 96 l 1
 396 25 l 1
 325 -46 l 1
 275 4 l 1
 252 -2 l 1
 253 -28 254 -52 256 -75 c 0
 257 -95 271 -125 271 -125 c 1xd8
EndSplineSet
EndChar
StartChar: guilsinglright
Encoding: 8250 8250 243
Width: 300
Flags: W
VStem: 4 292
LayerCount: 2
Back
SplineSet
75 325 m 21
 75 325 96.5400390625 295.372070312 125 275 c 4
 220 207 250 200 250 200 c 5
 250 200 186 174 100 100 c 4
 78.9248046875 81.8662109375 50 50 50 50 c 1037
EndSplineSet
Fore
SplineSet
100 371 m 1
 121 350 l 1
 121 350 127 343 135 333 c 0
 140 329 145 325 150 321 c 0
 212 277 246 259 262 251 c 0
 271 247 275 246 275 246 c 1
 296 225 l 1
 225 154 l 1
 225 154 161 128 75 54 c 0
 64 44 40 19 25 4 c 1
 4 25 l 1
 4 25 16 39 31 54 c 2
 102 125 l 2
 109 133 118 140 125 146 c 0
 141 160 156 171 170 182 c 1
 152 193 129 208 100 229 c 0
 91 236 82 244 75 251 c 2
 54 272 l 2
 39 287 29 300 29 300 c 1
 100 371 l 1
EndSplineSet
EndChar
StartChar: lozengedot
Encoding: 8280 8280 899
Width: 600
Flags: W
HStem: -46 21G<280 320>
LayerCount: 2
Back
SplineSet
425 200 m 25
 475 150 l 1049
275 50 m 25
 325 0 l 1049
275 350 m 25
 325 300 l 1049
125 200 m 25
 175 150 l 1049
EndSplineSet
Fore
SplineSet
79 175 m 1
 150 246 l 1
 221 175 l 1
 150 104 l 1
 79 175 l 1
229 325 m 1
 300 396 l 1
 371 325 l 1
 300 254 l 1
 229 325 l 1
229 25 m 1
 300 96 l 1
 371 25 l 1
 300 -46 l 1
 229 25 l 1
379 175 m 1
 450 246 l 1
 521 175 l 1
 450 104 l 1
 379 175 l 1
EndSplineSet
EndChar
StartChar: Euro
Encoding: 8364 8364 264
Width: 550
Flags: W
HStem: -46 21G<285 345> 179 92<75 104 196 325> 329 92<75 104 196 375> 479 21G<416.667 470> 626 20G<355 408.333>
VStem: 104 92<135 179 271 329>
LayerCount: 2
Back
SplineSet
50 225 m 25
 350 225 l 1049
50 375 m 25
 400 375 l 1053
475 525 m 9
 350 600 l 25
 150 400 l 25
 150 100 l 25
 350 0 l 25
 500 150 l 1041
EndSplineSet
Fore
SplineSet
521 550 m 1
 450 479 l 1
 325 554 l 2
 324 554 207 436 196 425 c 1
 196 421 l 1
 425 421 l 1
 446 400 l 1
 375 329 l 1
 196 329 l 1
 196 271 l 1
 375 271 l 1
 396 250 l 1
 325 179 l 1
 196 179 l 1
 196 135 l 1
 375 46 l 1
 375 46 447 118 454 125 c 2
 525 196 l 1
 546 175 l 1
 325 -46 l 1
 125 54 l 1
 104 75 l 1
 104 179 l 1
 25 179 l 1
 4 200 l 1
 75 271 l 1
 104 271 l 1
 104 329 l 1
 25 329 l 1
 4 350 l 1
 75 421 l 1
 150 421 l 1
 375 646 l 1
 500 571 l 1
 521 550 l 1
EndSplineSet
EndChar
StartChar: minus
Encoding: 8722 8722 214
Width: 600
Flags: W
HStem: 254 92<125 475>
LayerCount: 2
Back
SplineSet
100 300 m 25
 500 300 l 1049
EndSplineSet
Fore
SplineSet
54 275 m 1
 125 346 l 1
 525 346 l 1
 546 325 l 1
 475 254 l 1
 75 254 l 1
 54 275 l 1
EndSplineSet
EndChar
StartChar: logicaland
Encoding: 8743 8743 952
Width: 600
Flags: W
HStem: -46 21G<55 95 455 495> 426 20G<305 345> 426 20G<305 345>
LayerCount: 2
Back
SplineSet
100 0 m 25
 300 400 l 25
 500 0 l 1049
EndSplineSet
Fore
SplineSet
75 -46 m 1xc0
 54 -25 l 1
 254 375 l 1
 325 446 l 1
 346 425 l 1
 546 25 l 1
 475 -46 l 1
 454 -25 l 1
 288 308 l 1
 146 25 l 1
 75 -46 l 1xc0
EndSplineSet
EndChar
StartChar: therefore
Encoding: 8756 8756 896
Width: 600
Flags: W
HStem: -46 21G<130 170 430 470>
LayerCount: 2
Back
SplineSet
425 50 m 25
 475 0 l 1049
275 350 m 25
 325 300 l 1049
125 50 m 25
 175 0 l 1049
EndSplineSet
Fore
SplineSet
79 25 m 1
 150 96 l 1
 221 25 l 1
 150 -46 l 1
 79 25 l 1
229 325 m 1
 300 396 l 1
 371 325 l 1
 300 254 l 1
 229 325 l 1
379 25 m 1
 450 96 l 1
 521 25 l 1
 450 -46 l 1
 379 25 l 1
EndSplineSet
EndChar
StartChar: because
Encoding: 8757 8757 897
Width: 600
Flags: W
HStem: -46 21G<280 320>
LayerCount: 2
Back
SplineSet
425 350 m 25
 475 300 l 1049
125 350 m 25
 175 300 l 1049
275 50 m 25
 325 0 l 1049
EndSplineSet
Fore
SplineSet
229 25 m 1
 300 96 l 1
 371 25 l 1
 300 -46 l 1
 229 25 l 1
79 325 m 1
 150 396 l 1
 221 325 l 1
 150 254 l 1
 79 325 l 1
379 325 m 1
 450 396 l 1
 521 325 l 1
 450 254 l 1
 379 325 l 1
EndSplineSet
EndChar
StartChar: proportion
Encoding: 8759 8759 898
Width: 600
Flags: W
HStem: -46 21G<130 170 430 470>
LayerCount: 2
Back
SplineSet
425 350 m 25
 475 300 l 1049
425 50 m 25
 475 0 l 1049
125 350 m 25
 175 300 l 1049
125 50 m 25
 175 0 l 1049
EndSplineSet
Fore
SplineSet
79 25 m 1
 150 96 l 1
 221 25 l 1
 150 -46 l 1
 79 25 l 1
79 325 m 1
 150 396 l 1
 221 325 l 1
 150 254 l 1
 79 325 l 1
379 25 m 1
 450 96 l 1
 521 25 l 1
 450 -46 l 1
 379 25 l 1
379 325 m 1
 450 396 l 1
 521 325 l 1
 450 254 l 1
 379 325 l 1
EndSplineSet
EndChar
StartChar: bracketangleleft
Encoding: 9296 9296 930
Width: 400
Flags: W
HStem: -196 21G<305 345>
LayerCount: 2
Back
SplineSet
325 675 m 17
 325 675 244.716713418 553.917846347 225 525 c 0
 180 459 50 250 50 250 c 1
 50 250 204 60 250 0 c 0
 266.916127607 -22.0645142705 350 -150 350 -150 c 1033
EndSplineSet
Fore
SplineSet
350 721 m 1
 371 700 l 1
 371 700 291 579 271 550 c 0
 226 484 96 275 96 275 c 1
 96 275 250 85 296 25 c 0
 313 3 396 -125 396 -125 c 1
 325 -196 l 1
 304 -175 l 1
 304 -175 221 -47 204 -25 c 0
 158 35 4 225 4 225 c 1
 4 225 134 434 179 500 c 0
 199 529 279 650 279 650 c 1
 350 721 l 1
EndSplineSet
EndChar
StartChar: FleuronCenter
Encoding: 10086 10086 955
Width: 700
Flags: W
HStem: -46 21G<318.5 371.5> 476 20G<209 233> 529 92<496 600> 538 95<340.308 384 496 570> 554 92<100 202.25>
VStem: 29 342<97.5 297>
LayerCount: 2
Back
SplineSet
400 700 m 5
 400 700 450 644 450 600 c 27
 450 521 350 425 350 425 c 1025
50 575 m 25
 75 600 l 25
 625 575 l 25
 650 600 l 1049
550 100 m 1
 550 100 459 0 350 0 c 3
 229 0 75 141 75 300 c 27
 75 376 124 450 200 450 c 27
 262 450 300 325 300 325 c 1
 300 325 338 450 400 450 c 27
 455 450 500 399 500 350 c 3
 500 277.390625 436.303710938 243.852539062 375 200 c 8
 332 169 325 128 325 75 c 19
 325 47.4769851995 375 25 375 25 c 1025
EndSplineSet
Fore
SplineSet
419 51 m 1xe4
 485 67 540 112 563 134 c 2
 575 146 l 1
 596 125 l 1
 596 125 594 122 591 119 c 2
 520 49 l 1
 520 48 l 2
 498 26 418 -46 325 -46 c 0
 312 -46 299 -44 286 -41 c 0
 238 -30 188 -1 146 41 c 2
 125 62 l 2
 70 117 29 194 29 275 c 0
 29 319 45 362 74 391 c 2
 145 462 l 2
 166 483 193 496 225 496 c 0
 241 496 255 488 268 475 c 2
 290 453 l 2
 301 442 310 429 318 415 c 1
 340 439 382 488 398 538 c 1xd4
 50 554 l 1xcc
 25 529 l 1xe4
 4 550 l 1
 100 646 l 1xcc
 384 633 l 1xd4
 370 657 354 675 354 675 c 1
 425 746 l 1
 446 725 l 1
 446 725 494 671 496 628 c 1
 650 621 l 2xe4
 650 621 672 643 675 646 c 2xcc
 696 625 l 1
 600 529 l 1
 465 535 l 1
 456 520 445 507 436 495 c 1
 458 492 479 481 494 466 c 2
 515 445 l 2
 534 426 546 400 546 375 c 0
 546 340 531 314 508 291 c 2
 438 220 l 2
 422 204 402 190 382 176 c 1
 373 154 371 129 371 100 c 0
 371 95 373 89 375 85 c 0
 388 76 400 71 400 71 c 2
 419 51 l 1xe4
EndSplineSet
EndChar
StartChar: FleuronRight
Encoding: 10087 10087 956
Width: 800
Flags: W
HStem: -46 21G<130 170> 526 20G<155 195>
LayerCount: 2
Back
SplineSet
50 150 m 25
 75 200 l 25
 325 300 l 1049
175 0 m 25
 150 25 l 25
 175 475 l 25
 150 500 l 1049
750 350 m 1
 750 350 622 25 450 25 c 27
 374 25 300 74 300 150 c 27
 300 212 425 250 425 250 c 1
 425 250 300 288 300 350 c 27
 300 405 351 450 400 450 c 3
 473 450 506 386 550 325 c 8
 579 285 576 225 625 225 c 3
 667 225 725 325 725 325 c 1025
EndSplineSet
Fore
SplineSet
679 300 m 2
 775 396 l 1
 796 375 l 1
 796 375 790 361 780 339 c 0
 756 287 705 189 638 122 c 2
 568 51 l 2
 567 50 l 0
 525 8 477 -21 425 -21 c 0
 381 -21 338 -5 309 24 c 2
 288 45 l 2
 287 46 l 0
 266 67 254 93 254 125 c 0
 254 141 262 156 275 169 c 2
 337 231 l 1
 324 238 312 247 302 256 c 1
 300 254 l 1
 205 216 l 1
 196 50 l 1
 221 25 l 1
 150 -46 l 1
 104 0 l 1
 114 180 l 1
 92 171 l 1
 25 104 l 1
 4 125 l 1
 29 175 l 1
 100 246 l 1
 118 253 l 1
 129 450 l 2
 129 451 126 453 125 454 c 2
 104 475 l 1
 175 546 l 1
 221 500 l 1
 209 290 l 1
 257 309 l 1
 255 314 254 319 254 325 c 0
 254 352 266 376 284 394 c 2
 355 465 l 2
 374 484 400 496 425 496 c 0
 460 496 486 481 508 459 c 2
 530 437 l 2
 554 413 573 381 596 350 c 0
 613 327 619 296 631 275 c 0
 637 272 643 271 650 271 c 0
 654 271 659 272 662 273 c 0
 673 289 679 300 679 300 c 2
EndSplineSet
EndChar
StartChar: bracketwhiteleft
Encoding: 10214 10214 918
Width: 400
Flags: W
HStem: -196 92<146 210 240 325> 654 92<146 210 240 325>
VStem: 54 92<-104 654> 210 30<-104 654>
LayerCount: 2
Back
SplineSet
225 650 m 25
 225 -100 l 1049
350 700 m 25
 100 700 l 25
 100 -150 l 25
 350 -150 l 1033
EndSplineSet
Fore
SplineSet
396 725 m 1
 325 654 l 1
 240 654 l 1
 240 -104 l 1
 375 -104 l 1
 396 -125 l 1
 325 -196 l 1
 75 -196 l 1
 54 -175 l 1
 54 675 l 1
 125 746 l 1
 375 746 l 1
 396 725 l 1
210 654 m 1
 146 654 l 1
 146 -104 l 1
 210 -104 l 1
 210 654 l 1
EndSplineSet
EndChar
StartChar: bracketwhiteright
Encoding: 10215 10215 919
Width: 400
Flags: W
HStem: -196 92<75 160 190 254> 654 92<75 160 190 254>
VStem: 160 30<-104 654> 254 92<-104 654>
LayerCount: 2
Back
SplineSet
175 650 m 25
 175 -100 l 1049
50 700 m 25
 300 700 l 25
 300 -150 l 25
 50 -150 l 1033
EndSplineSet
Fore
SplineSet
4 675 m 1
 75 746 l 1
 325 746 l 1
 346 725 l 1
 346 -125 l 1
 275 -196 l 1
 25 -196 l 1
 4 -175 l 1
 75 -104 l 1
 160 -104 l 1
 160 654 l 1
 25 654 l 1
 4 675 l 1
190 -104 m 1
 254 -104 l 1
 254 654 l 1
 190 654 l 1
 190 -104 l 1
EndSplineSet
EndChar
StartChar: luslst
Encoding: 11788 11788 902
Width: 300
Flags: W
VStem: 4 292
LayerCount: 2
Back
SplineSet
50 700 m 25
 250 450 l 1049
EndSplineSet
Fore
SplineSet
75 746 m 1
 96 725 l 1
 296 475 l 1
 225 404 l 1
 204 425 l 1
 4 675 l 1
 75 746 l 1
EndSplineSet
EndChar
StartChar: ruslst
Encoding: 11789 11789 903
Width: 300
Flags: W
VStem: 4 292
LayerCount: 2
Back
SplineSet
50 450 m 25
 250 700 l 1049
EndSplineSet
Fore
SplineSet
25 404 m 1
 4 425 l 1
 204 675 l 1
 275 746 l 1
 296 725 l 1
 96 475 l 1
 25 404 l 1
EndSplineSet
EndChar
StartChar: llslst
Encoding: 11805 11805 905
Width: 300
Flags: W
HStem: -196 21G<5 45>
VStem: 4 292
LayerCount: 2
Back
SplineSet
50 -150 m 25
 250 100 l 1049
EndSplineSet
Fore
SplineSet
25 -196 m 1
 4 -175 l 1
 204 75 l 1
 275 146 l 1
 296 125 l 1
 96 -125 l 1
 25 -196 l 1
EndSplineSet
EndChar
StartChar: brackettopleft
Encoding: 11810 11810 922
Width: 300
Flags: W
HStem: 654 92<146 225>
VStem: 54 92<325 654>
LayerCount: 2
Back
SplineSet
250 700 m 25
 100 700 l 17
 100 300 l 1025
EndSplineSet
Fore
SplineSet
296 725 m 1
 225 654 l 1
 146 654 l 1
 146 325 l 1
 75 254 l 1
 54 275 l 1
 54 675 l 1
 125 746 l 1
 275 746 l 1
 296 725 l 1
EndSplineSet
EndChar
StartChar: brackettopright
Encoding: 11811 11811 923
Width: 300
Flags: W
HStem: 654 92<75 154>
VStem: 154 92<325 654>
LayerCount: 2
Back
SplineSet
50 700 m 25
 200 700 l 17
 200 300 l 1025
EndSplineSet
Fore
SplineSet
4 675 m 1
 75 746 l 1
 225 746 l 1
 246 725 l 1
 246 325 l 1
 175 254 l 1
 154 275 l 1
 154 654 l 1
 25 654 l 1
 4 675 l 1
EndSplineSet
EndChar
StartChar: bracketbottomleft
Encoding: 11812 11812 924
Width: 300
Flags: W
HStem: -196 92<146 225>
VStem: 54 92<-104 275>
LayerCount: 2
Back
SplineSet
100 300 m 1
 100 -150 l 9
 250 -150 l 1033
EndSplineSet
Fore
SplineSet
125 346 m 1
 146 325 l 1
 146 -104 l 1
 275 -104 l 1
 296 -125 l 1
 225 -196 l 1
 75 -196 l 1
 54 -175 l 1
 54 275 l 1
 125 346 l 1
EndSplineSet
EndChar
StartChar: fivedots
Encoding: 11821 11821 935
Width: 600
Flags: W
LayerCount: 2
Back
SplineSet
275 200 m 25
 325 150 l 1049
450 200 m 25
 500 150 l 1049
275 25 m 25
 325 -25 l 1049
275 375 m 25
 325 325 l 1049
100 200 m 25
 150 150 l 1049
EndSplineSet
Fore
SplineSet
54 175 m 1
 125 246 l 1
 196 175 l 1
 125 104 l 1
 54 175 l 1
229 350 m 1
 300 421 l 1
 371 350 l 1
 300 279 l 1
 229 350 l 1
229 0 m 1
 300 71 l 1
 371 -0 l 1
 300 -71 l 1
 229 0 l 1
404 175 m 1
 475 246 l 1
 546 175 l 1
 475 104 l 1
 404 175 l 1
229 175 m 1
 300 246 l 1
 371 175 l 1
 300 104 l 1
 229 175 l 1
EndSplineSet
EndChar
StartChar: kbar
Encoding: 42817 42817 862
Width: 400
Flags: W
HStem: -46 21G<80 120 280 320> 429 92<50 54 146 175> 451 20G<280 320> 651 20G<80 120>
VStem: 54 92<50 207 262 429 521 575> 254 92<50 170>
AnchorPoint: "abvmark" 200 700 basechar 0
AnchorPoint: "blwmark" 200 0 basechar 0
LayerCount: 2
Back
SplineSet
200 475 m 25
 25 475 l 1049
275 425 m 25
 325 375 l 1049
75 625 m 25
 125 575 l 1049
75 625 m 25
 125 575 l 1049
100 200 m 1
 300 350 l 9
 300 400 l 1049
200 275 m 1
 300 200 l 1
 300 25 l 1025
275 50 m 25
 325 0 l 1049
75 50 m 25
 125 0 l 1049
75 625 m 25
 125 575 l 1049
100 600 m 9
 100 25 l 1049
EndSplineSet
Fore
SplineSet
229 400 m 1xdc
 300 471 l 1xbc
 325 446 l 1
 346 425 l 1
 371 400 l 1
 346 375 l 1
 300 329 l 1
 275 304 l 1
 261 294 l 1
 325 246 l 1
 346 225 l 1
 346 50 l 1
 371 25 l 1
 300 -46 l 1
 275 -21 l 1
 265 -10 l 1
 229 25 l 1
 254 50 l 1
 254 170 l 1
 175 229 l 1
 146 207 l 1
 146 50 l 1
 171 25 l 1
 100 -46 l 1
 29 25 l 1
 54 50 l 1
 54 175 l 1
 54 429 l 1
 0 429 l 1
 -21 450 l 1
 50 521 l 1
 54 521 l 1
 54 575 l 1
 29 600 l 1
 100 671 l 1
 125 646 l 1
 146 625 l 1
 171 600 l 1
 146 575 l 1
 146 521 l 1
 225 521 l 1
 246 500 l 1
 175 429 l 1
 146 429 l 1
 146 262 l 1
 225 321 l 1
 254 343 l 1
 254 375 l 1
 229 400 l 1xdc
EndSplineSet
EndChar
StartChar: oeloop
Encoding: 42829 42829 867
Width: 550
Flags: W
HStem: -45.9619 21G<155.251 195.251> 425.962 20G<204.748 244.748 404.749 444.749> 425.962 20G<204.748 244.748 404.749 444.749>
VStem: 54.0381 91.9238<124.748 275.251> 254.038 91.9238<167.175 275.251>
AnchorPoint: "abvmark" 300 500 basechar 0
AnchorPoint: "blwmark" 300 0 basechar 0
LayerCount: 2
Back
SplineSet
300 100 m 25
 300 300 l 25
 400 400 l 25
 500 300 l 1
 300 100 l 25
 200 0 l 1
 100 100 l 25
 100 300 l 25
 200 400 l 25
 300 300 l 1041
EndSplineSet
Fore
SplineSet
254.038085938 275.250976562 m 1x98
 175.250976562 354.038085938 l 1
 145.961914062 324.749023438 l 1
 145.961914062 124.748046875 l 1
 224.748046875 45.9619140625 l 1
 254.038085938 75.2509765625 l 1
 254.038085938 275.250976562 l 1x98
345.961914062 167.174804688 m 1
 454.038085938 275.250976562 l 1
 375.250976562 354.038085938 l 1
 345.961914062 324.748046875 l 1
 345.961914062 167.174804688 l 1
324.748046875 345.961914062 m 1
 424.749023438 445.961914062 l 1
 545.961914062 324.749023438 l 1
 175.250976562 -45.9619140625 l 1
 54.0380859375 75.2509765625 l 1
 54.0380859375 275.250976562 l 1
 224.748046875 445.961914062 l 1xd8
 324.748046875 345.961914062 l 1
EndSplineSet
EndChar
StartChar: pflourish
Encoding: 42835 42835 869
Width: 500
Flags: W
HStem: -196 21G<-20 13 155 195> -46 21G<255 295> 426 20G<180 220 305 345> 426 20G<180 220 305 345>
VStem: 29 92<-92.3692 36.2224> 154 92<-125 -17 136 325> 354 92<125 275>
AnchorPoint: "abvmark" 300 500 basechar 0
LayerCount: 2
Back
SplineSet
200 300 m 29
 300 400 l 5
 400 300 l 29
 400 100 l 5
 300 0 l 5
 300 0 232 100 25 100 c 5
 25 100 75 44 75 0 c 7
 75 -132 25 -150 25 -150 c 1037
175 400 m 29
 225 350 l 1053
200 375 m 5
 200 -150 l 1029
EndSplineSet
Fore
SplineSet
129 375 m 1xee
 200 446 l 1
 225 421 l 1
 246 400 l 1
 262 383 l 1
 325 446 l 1
 446 325 l 1
 446 125 l 1
 275 -46 l 1
 254 -25 l 1
 254 -25 253 -23 251 -21 c 0
 249 -20 248 -18 246 -17 c 2
 246 -125 l 1
 175 -196 l 1
 154 -175 l 1
 154 31 l 1
 143 35 132 38 119 41 c 1
 120 35 121 31 121 25 c 0
 121 -64 98 -101 83 -116 c 2
 13 -187 l 2
 6 -194 0 -196 0 -196 c 1
 -21 -175 l 1
 3 -151 l 1
 15 -131 29 -93 29 -25 c 0
 29 19 -21 75 -21 75 c 1
 50 146 l 1
 90 146 124 142 154 136 c 1
 154 275 l 1
 154 350 l 1
 129 375 l 1xee
246 325 m 1
 246 106 l 1
 279 90 300 72 312 60 c 2
 326 47 l 1
 354 75 l 1
 354 275 l 1
 275 354 l 1
 246 325 l 1
EndSplineSet
EndChar
StartChar: zvisigoth
Encoding: 42851 42851 839
Width: 350
Flags: W
HStem: -246 92<158.823 193.347> -196 92<42.5 122.049> 426 20G<205 245> 426 20G<205 245>
VStem: 54 92<235 275> 204 92<-125 -39>
AnchorPoint: "abvmark" 200 500 basechar 0
LayerCount: 2
Back
SplineSet
300 300 m 9
 200 400 l 25
 100 300 l 1
 100 200 l 25
 200 150 l 25
 100 50 l 1
 250 0 l 1
 250 -150 l 1
 250 -150 203 -200 175 -200 c 0
 143 -200 119 -150 75 -150 c 16
 37 -150 0 -200 0 -200 c 1025
EndSplineSet
Fore
SplineSet
346 325 m 1xac
 275 254 l 1
 175 354 l 1
 146 325 l 1
 146 235 l 1
 225 196 l 1
 246 175 l 1
 157 85 l 1
 275 46 l 1
 296 25 l 1
 296 -125 l 1
 296 -125 295 -126 292 -129 c 2
 221 -200 l 2
 209 -212 173 -246 150 -246 c 0xac
 118 -246 94 -196 50 -196 c 0x4c
 35 -196 19 -204 8 -213 c 2
 -25 -246 l 1x8c
 -46 -225 l 1
 -46 -225 -40 -217 -30 -207 c 2
 40 -136 l 2
 54 -122 77 -104 100 -104 c 0x4c
 144 -104 168 -154 200 -154 c 0
 201 -154 202 -154 204 -154 c 2
 204 -39 l 1
 75 4 l 1
 54 25 l 1
 147 118 l 1
 75 154 l 1
 54 175 l 1
 54 275 l 1
 225 446 l 1
 346 325 l 1xac
EndSplineSet
EndChar
StartChar: thornbar
Encoding: 42853 42853 874
Width: 400
Flags: W
HStem: -196 21G<55 95> -46 21G<5 38 163 195> 426 20G<205 245> 426 20G<205 245> 429 92<50 54 146 175> 651 20G<80 120>
VStem: 54 92<-125 -19 96 325 367 429 521 575> 254 92<125 314.805>
AnchorPoint: "abvmark" 200 700 basechar 0
LayerCount: 2
Back
SplineSet
50 0 m 5
 50 0 96 50 125 50 c 4
 154 50 200 0 200 0 c 13
 300 100 l 5
 300 300 l 29
 200 400 l 5
 100 300 l 1053
75 625 m 29
 125 575 l 1053
100 600 m 5
 100 -150 l 1029
200 475 m 29
 25 475 l 1053
EndSplineSet
Fore
SplineSet
246 500 m 1xcf
 175 429 l 1
 146 429 l 1xcf
 146 367 l 1
 225 446 l 1xe7
 346 325 l 1
 346 125 l 1
 175 -46 l 1
 163 -34 l 2
 158 -30 152 -24 146 -19 c 1
 146 -125 l 1
 75 -196 l 1
 54 -175 l 1
 54 -19 l 1
 48 -24 43 -30 38 -34 c 2
 25 -46 l 1
 4 -25 l 1
 4 -25 6 -23 10 -19 c 2
 54 25 l 1
 54 275 l 1
 54 429 l 1
 0 429 l 1
 -21 450 l 1
 50 521 l 1
 54 521 l 1
 54 575 l 1
 29 600 l 1
 100 671 l 1
 125 646 l 1
 146 625 l 1
 171 600 l 1
 146 575 l 1
 146 521 l 1
 225 521 l 1
 246 500 l 1xcf
146 325 m 1
 146 96 l 2
 147 96 149 96 150 96 c 0
 173 96 206 65 219 52 c 2
 225 46 l 1
 254 75 l 1
 254 275 l 2
 254 317 198 331 175 354 c 1
 146 325 l 1
EndSplineSet
EndChar
StartChar: thornbarbelow
Encoding: 42855 42855 875
Width: 400
Flags: W
HStem: -196 21G<55 95> -121 92<50 54 146 175> 426 20G<205 245> 426 20G<205 245> 651 20G<80 120>
VStem: 54 92<-125 -121 -29 31 146 325 367 575> 254 92<86 275>
AnchorPoint: "abvmark" 200 700 basechar 0
LayerCount: 2
Back
SplineSet
200 -75 m 25
 25 -75 l 1049
100 300 m 25
 200 400 l 1
 300 300 l 1
 300 50 l 1
 250 0 l 1
 250 0 206 100 125 100 c 0
 96 100 50 50 50 50 c 1025
75 625 m 25
 125 575 l 1049
100 600 m 1
 100 -150 l 1025
EndSplineSet
Fore
SplineSet
29 600 m 1xee
 100 671 l 1
 125 646 l 1
 146 625 l 1
 171 600 l 1
 146 575 l 1
 146 367 l 1
 225 446 l 1
 346 325 l 1
 346 75 l 1
 233 -38 l 1
 246 -50 l 1
 175 -121 l 1
 146 -121 l 1
 146 -125 l 1
 75 -196 l 1
 54 -175 l 1
 54 -121 l 1
 0 -121 l 1
 -21 -100 l 1
 50 -29 l 1
 54 -29 l 1
 54 31 l 1
 48 26 43 20 38 16 c 2
 25 4 l 1
 4 25 l 1
 4 25 6 27 10 31 c 2
 54 75 l 1
 54 275 l 1
 54 575 l 1
 29 600 l 1xee
146 325 m 1
 146 146 l 2
 147 146 149 146 150 146 c 0
 184 146 212 128 232 108 c 2
 253 87 l 2
 253 87 253 87 254 86 c 2
 254 275 l 1
 175 354 l 1
 146 325 l 1
146 43 m 1
 146 -29 l 1
 208 -29 l 1
 204 -25 l 1
 204 -25 192 1 171 26 c 0
 163 32 155 38 146 43 c 1
EndSplineSet
EndChar
StartChar: is
Encoding: 42861 42861 957
Width: 450
Flags: W
HStem: -246 92<28.9441 72.2599> -196 92<-82.5 -3>
VStem: 79 92<-139.58 110 160 209 259 525> 279 92<425 525>
LayerCount: 2
Back
SplineSet
-125 -200 m 17
 -125 -200 -88 -150 -50 -150 c 8
 -6 -150 6 -200 50 -200 c 24
 85 -200 125 -150 125 -150 c 1
 125 550 l 1
 225 650 l 25
 325 550 l 25
 325 400 l 25
 0 50 l 1049
EndSplineSet
Fore
SplineSet
171 259 m 1x30
 279 375 l 1
 279 525 l 1
 200 604 l 1
 171 575 l 1
 171 259 l 1x30
-150 -246 m 1xb0
 -171 -225 l 1
 -171 -225 -165 -217 -155 -207 c 2
 -84 -136 l 2
 -84 -135 l 0
 -69 -120 -47 -104 -25 -104 c 0x70
 19 -104 31 -154 75 -154 c 0
 76 -154 78 -154 79 -154 c 2
 79 110 l 1
 46 75 l 1
 -25 4 l 1
 -46 25 l 1
 79 160 l 1
 79 525 l 1
 250 696 l 1
 371 575 l 1
 371 425 l 1
 171 209 l 1
 171 -125 l 2
 171 -125 166 -131 158 -140 c 2
 157 -140 l 2
 87 -211 l 2
 72 -226 47 -246 25 -246 c 0xb0
 -19 -246 -31 -196 -75 -196 c 0x70
 -90 -196 -105 -204 -117 -213 c 2
 -150 -246 l 1xb0
EndSplineSet
EndChar
StartChar: lum
Encoding: 42866 42866 573
Width: 425
Flags: W
HStem: -196 21G<80 120> -46 92<268.5 330.668> 651 20G<80 120>
VStem: 54 92<50 575> 229 92<70.9684 165>
LayerCount: 2
Back
SplineSet
225 225 m 1
 275 200 l 1
 275 200 275 139 275 100 c 27
 275 3 125 -150 125 -150 c 1025
375 50 m 17
 375 50 356 0 300 0 c 3
 206 0 175 50 175 50 c 9
 125 0 l 25
 75 50 l 1025
75 625 m 25
 125 575 l 1049
100 600 m 9
 100 25 l 1049
EndSplineSet
Fore
SplineSet
29 600 m 1
 100 671 l 1
 125 646 l 1
 146 625 l 1
 171 600 l 1
 146 575 l 1
 146 50 l 1
 150 46 l 1
 200 96 l 1
 220 76 l 2
 223 74 226 72 229 70 c 1
 229 72 229 73 229 75 c 2
 229 165 l 1
 200 179 l 1
 179 200 l 1
 250 271 l 1
 300 246 l 1
 321 225 l 1
 321 125 l 2
 321 101 312 74 299 47 c 1
 307 46 316 46 325 46 c 0
 337 46 347 48 356 52 c 2
 400 96 l 1
 421 75 l 1
 421 75 416 61 403 48 c 2
 332 -23 l 2
 320 -35 301 -46 275 -46 c 0
 262 -46 251 -46 241 -44 c 1
 205 -91 171 -125 171 -125 c 2
 100 -196 l 1
 79 -175 l 1
 79 -175 148 -104 192 -29 c 1
 176 -21 166 -13 159 -6 c 2
 149 3 l 1
 100 -46 l 1
 75 -21 l 1
 29 25 l 1
 54 50 l 1
 54 575 l 1
 29 600 l 1
EndSplineSet
EndChar
StartChar: Rumsmallcap
Encoding: 42870 42870 858
Width: 650
Flags: W
HStem: -196 21G<305 345> -46 92<493.5 555.668> 426 20G<80 120 205 255> 426 20G<80 120 205 255>
VStem: 54 92<50 325> 454 92<70.9684 165>
LayerCount: 2
Back
SplineSet
450 225 m 1
 500 200 l 1
 500 200 500 139 500 100 c 27
 500 3 350 -150 350 -150 c 1025
600 50 m 17
 600 50 581 0 525 0 c 3
 431 0 400 50 400 50 c 9
 350 0 l 1
 350 0 331 82 300 125 c 24
 280 154 225 175 225 175 c 1025
75 50 m 25
 125 0 l 1049
75 400 m 25
 125 350 l 1049
100 375 m 9
 100 25 l 1025
200 150 m 1
 350 300 l 1
 200 400 l 1
 100 300 l 1049
EndSplineSet
Fore
SplineSet
175 104 m 1xec
 154 125 l 1
 300 271 l 1
 175 354 l 2
 175 354 149 328 146 325 c 2
 146 50 l 1
 171 25 l 1
 100 -46 l 1
 75 -21 l 1
 29 25 l 1
 54 50 l 1
 54 275 l 1
 54 350 l 1
 29 375 l 1
 100 446 l 1
 125 421 l 1
 146 400 l 1
 162 383 l 1
 225 446 l 1
 375 346 l 1
 396 325 l 1
 279 207 l 1
 292 200 305 191 316 181 c 0
 317 181 l 1
 338 159 l 2
 341 156 344 153 346 150 c 0
 364 125 378 86 387 58 c 1
 425 96 l 1
 445 76 l 2
 448 74 451 72 454 70 c 1
 454 72 454 73 454 75 c 2
 454 165 l 1
 425 179 l 1
 404 200 l 1
 475 271 l 1
 525 246 l 1
 546 225 l 1
 546 125 l 2
 546 101 537 74 524 47 c 1
 532 46 541 46 550 46 c 0
 562 46 572 48 581 52 c 2
 625 96 l 1
 646 75 l 1
 646 75 641 61 628 48 c 2
 557 -23 l 2
 545 -35 526 -46 500 -46 c 0
 487 -46 476 -46 466 -44 c 1
 430 -91 396 -125 396 -125 c 2
 325 -196 l 1
 304 -175 l 1
 304 -175 373 -104 417 -29 c 1
 401 -21 391 -13 384 -6 c 2
 374 3 l 1
 325 -46 l 1
 304 -25 l 1
 304 -25 285 56 255 99 c 1
 231 117 200 129 200 129 c 2
 175 104 l 1xec
EndSplineSet
EndChar
StartChar: tum
Encoding: 42871 42871 728
Width: 600
Flags: W
HStem: -196 21G<255 292> -46 21G<130 170> 304 92<173.451 404> 426 20G<55 79 566 595> 426 20G<55 79 130 170 405 465 566 595>
VStem: 79 92<51.437 317 444 525> 404 92<100.211 308 408 465>
LayerCount: 2
Back
SplineSet
50 400 m 1049,0,-1
125 550 m 1,2,-1
 125 50 l 1,3,-1
 175 0 l 1,4,-1
 275 100 l 1025
400 525 m 1,0,-1
 450 500 l 1,1,2
 450 500 450 406 450 250 c 3,3,4
 450 -37.2509765625 300 -150 300 -150 c 1025
550 400 m 1,6,7
 550 400 518 350 350 350 c 3,8,9
 173 350 50 400 50 400 c 1025,10,-1
EndSplineSet
Fore
SplineSet
575 446 m 1xf6
 596 425 l 1
 596 425 595 424 592 421 c 2
 522 350 l 2
 518 346 510 340 496 333 c 1
 496 275 l 2
 496 47 401 -71 362 -110 c 2
 292 -181 l 2
 282 -191 275 -196 275 -196 c 1
 254 -175 l 1
 288 -141 l 1
 332 -89 404 26 404 225 c 2
 404 308 l 1
 382 305 356 304 325 304 c 0
 267 304 215 310 171 317 c 1
 171 75 l 2
 171 60 192 54 200 46 c 1
 300 146 l 1
 321 125 l 1
 150 -46 l 1
 79 25 l 1
 79 337 l 1
 45 346 25 354 25 354 c 2
 4 375 l 1
 75 446 l 1
 75 446 76 445 79 444 c 2
 79 525 l 1
 150 596 l 1
 171 575 l 1
 171 418 l 1
 223 407 293 396 375 396 c 0
 385 396 395 396 404 396 c 1
 404 465 l 1
 375 479 l 1
 354 500 l 1
 425 571 l 1
 475 546 l 1
 496 525 l 1
 496 408 l 1
 535 417 556 429 566 437 c 2
 575 446 l 1xf6
EndSplineSet
EndChar
StartChar: um
Encoding: 42872 42872 958
Width: 400
Flags: W
HStem: -196 21G<55 95> -46 21G<5 38 163 195> 426 20G<205 245 366 395> 426 20G<205 245 366 395>
VStem: 54 92<-125 -19>
LayerCount: 2
Back
SplineSet
100 -150 m 25
 100 -150 100 -58 100 0 c 3
 100 141 350 400 350 400 c 17
 350 400 303 350 275 350 c 0
 231 350 200 400 200 400 c 9
 100 300 l 1
 100 240 l 1
 300 160 l 1
 300 100 l 1
 200 0 l 17
 200 0 154 50 125 50 c 24
 96 50 50 0 50 0 c 1025
EndSplineSet
Fore
SplineSet
241 305 m 1xc8
 222 308 205 320 193 332 c 2
 173 352 l 1
 146 325 l 1
 146 277 l 1
 200 256 l 1
 214 274 228 290 241 305 c 1xc8
161 94 m 1
 162 94 l 0
 183 87 208 63 219 52 c 0
 225 46 l 1
 254 75 l 1
 254 123 l 1
 187 150 l 1
 177 131 168 112 161 94 c 1
54 -19 m 1
 48 -24 42 -30 38 -34 c 2
 25 -46 l 1
 4 -25 l 1
 4 -25 6 -23 10 -19 c 2
 66 38 l 1
 78 72 98 109 121 145 c 0
 126 153 131 161 137 169 c 1
 75 194 l 1
 54 215 l 1
 54 275 l 1
 225 446 l 1
 246 425 l 2
 246 425 249 420 254 414 c 0
 266 405 282 396 300 396 c 0
 320 396 351 423 366 437 c 2
 375 446 l 1xe8
 396 425 l 1
 396 424 l 0
 394 422 390 418 384 412 c 0
 361 388 309 330 260 263 c 0
 254 255 249 247 243 239 c 1
 325 206 l 1
 346 185 l 1
 346 125 l 1
 175 -46 l 1
 163 -34 l 2
 158 -29 152 -24 146 -19 c 1
 146 -125 l 1
 75 -196 l 1
 54 -175 l 1
 54 -25 l 2
 54 -23 54 -21 54 -19 c 1
EndSplineSet
EndChar
StartChar: kbar_longs
Encoding: 59336 59336 962
Width: 425
Flags: W
HStem: -246 92<29.4436 68.3467> -196 92<-82.5 -9.5> -46 21G<305 345> 429 92<50 79 171 175> 451 20G<305 345> 554 21G<263.5 289> 604 42<328.717 351>
VStem: 79 92<-125 207 262 429 521 525> 279 92<50 170>
LayerCount: 2
Back
SplineSet
-125 -200 m 21
 -125 -200 -88 -150 -50 -150 c 12
 -19 -150 18 -200 50 -200 c 28
 78 -200 125 -150 125 -150 c 5
 125 550 l 5
 225 650 l 21
 225 650 256 600 300 600 c 28
 328 600 375 650 376 650 c 1037
300 50 m 29
 350 0 l 1053
225 275 m 5
 325 200 l 5
 325 25 l 1029
125 200 m 5
 325 350 l 13
 325 400 l 1053
300 425 m 29
 350 375 l 1053
200 475 m 29
 25 475 l 1053
EndSplineSet
Fore
SplineSet
246 500 m 1xb780
 175 429 l 1
 171 429 l 1xb780
 171 262 l 1
 250 321 l 1
 279 343 l 1
 279 375 l 1
 254 400 l 1
 325 471 l 1
 350 446 l 1
 371 425 l 1
 396 400 l 1
 371 375 l 1
 325 329 l 1
 300 304 l 1
 286 294 l 1
 350 246 l 1
 371 225 l 1
 371 50 l 1
 396 25 l 1
 325 -46 l 1
 300 -21 l 1
 279 0 l 1
 254 25 l 1
 279 50 l 1
 279 170 l 1
 200 229 l 1
 171 207 l 1
 171 -125 l 2
 171 -125 170 -126 167 -129 c 2
 96 -200 l 2
 84 -212 48 -246 25 -246 c 0xaf80
 -7 -246 -44 -196 -75 -196 c 0x6780
 -90 -196 -105 -204 -117 -213 c 2
 -150 -246 l 1xa780
 -171 -225 l 1
 -171 -225 -165 -217 -155 -207 c 2
 -84 -136 l 2
 -84 -135 l 0
 -69 -120 -47 -104 -25 -104 c 0x6780
 6 -104 43 -154 75 -154 c 0
 76 -154 78 -154 79 -154 c 2
 79 175 l 1
 79 429 l 1
 0 429 l 1
 -21 450 l 1
 50 521 l 1
 79 521 l 1
 79 525 l 1
 250 696 l 1
 271 675 l 1
 271 675 274 670 279 664 c 0
 291 654 307 646 325 646 c 0
 353 646 400 696 401 696 c 2
 422 675 l 1
 351 604 l 2
 350 604 303 554 275 554 c 0
 252 554 232 568 219 581 c 0
 218 582 l 2
 198 602 l 1
 171 575 l 1
 171 521 l 1
 225 521 l 1
 246 500 l 1xb780
EndSplineSet
LCarets2: 1 225 
Ligature2: "Historic ligatures-1" kbar longs
EndChar
StartChar: q_etfin
Encoding: 59583 59583 966
Width: 600
Flags: W
HStem: -46 21G<155 195> 426 20G<205 245 304.459 345 380 425> 426 20G<205 245 304.459 345 380 425>
VStem: 54 92<125 275> 254 92<-97 33 75 97 167 327> 454 92<25 61>
CounterMasks: 1 1c
LayerCount: 2
Back
SplineSet
300 100 m 9
 200 0 l 25
 100 100 l 25
 100 300 l 25
 200 400 l 1
 200 400 222 360 250 360 c 24
 278 360 300 400 300 400 c 9
 300 -150 l 1049
300 325 m 29
 375 400 l 5
 500 300 l 5
 350 150 l 5
 500 100 l 5
 500 0 l 5
 250 -200 l 1029
EndSplineSet
Fore
SplineSet
254 33 m 1xdc
 175 -46 l 1
 54 75 l 1
 54 275 l 1
 225 446 l 1
 246 425 l 1
 246 425 249 419 254 413 c 0
 261 409 267 406 275 406 c 0
 279 406 284 408 287 409 c 2
 325 446 l 1
 346 425 l 1
 346 392 l 1
 400 446 l 1
 525 346 l 1
 546 325 l 1
 407 185 l 1
 525 146 l 1
 546 125 l 1
 546 25 l 1
 475 -46 l 1
 225 -246 l 1
 204 -225 l 1
 254 -175 l 1
 254 33 l 1xdc
346 -97 m 1
 454 -11 l 1
 454 61 l 1
 346 97 l 1
 346 -97 l 1
346 167 m 1
 452 273 l 1
 350 354 l 1
 346 350 l 1
 346 167 l 1
254 300 m 1
 254 327 l 1
 246 320 236 314 225 314 c 0
 213 314 203 322 194 330 c 0
 193 330 l 2
 172 351 l 1
 146 325 l 1
 146 125 l 1
 225 46 l 1
 254 75 l 1
 254 300 l 1
EndSplineSet
LCarets2: 1 300 
Ligature2: "Ligatures-1" q etfin
EndChar
StartChar: longs_h
Encoding: 60321 60321 707
Width: 650
Flags: W
HStem: -246 92<28.9441 72.2599> -196 92<-82.5 -3> -46 21G<330 370 530 570> 426 20G<480 520> 426 20G<480 520>
VStem: 79 92<-139.58 525> 304 92<50 300 342 557.573> 504 92<50 331.5>
LayerCount: 2
Back
SplineSet
525 50 m 25
 575 0 l 1049
325 50 m 25
 375 0 l 1049
550 25 m 25
 550 325 l 25
 475 400 l 1
 350 275 l 1049
-125 -200 m 17
 -125 -200 -88 -150 -50 -150 c 8
 -6 -150 6 -200 50 -200 c 24
 85 -200 125 -150 125 -150 c 1
 125 550 l 1
 225 650 l 1
 225 650 253 600 350 600 c 9
 350 25 l 1025
EndSplineSet
Fore
SplineSet
-150 -246 m 1xa7
 -171 -225 l 1
 -171 -225 -165 -217 -155 -207 c 2
 -84 -136 l 2
 -84 -135 l 0
 -69 -120 -47 -104 -25 -104 c 0x67
 19 -104 31 -154 75 -154 c 0
 76 -154 78 -154 79 -154 c 2
 79 525 l 1
 250 696 l 1
 271 675 l 1
 271 674 l 0
 290 660 322 646 375 646 c 1
 396 625 l 1
 396 342 l 1
 500 446 l 1
 596 350 l 1
 596 50 l 1
 621 25 l 1
 550 -46 l 1
 525 -21 l 1
 515 -10 l 1
 479 25 l 1
 504 50 l 1
 504 300 l 2
 504 328 466 338 450 354 c 1
 396 300 l 1
 396 50 l 1
 421 25 l 1
 350 -46 l 1
 325 -21 l 1
 315 -10 l 1
 279 25 l 1
 304 50 l 1
 304 250 l 1
 304 555 l 1
 252 559 223 579 210 592 c 2
 199 603 l 1
 171 575 l 1
 171 -125 l 2
 171 -125 166 -131 158 -140 c 2
 157 -140 l 2
 87 -211 l 2
 72 -226 47 -246 25 -246 c 0xb7
 -19 -246 -31 -196 -75 -196 c 0x67
 -90 -196 -105 -204 -117 -213 c 2
 -150 -246 l 1xa7
EndSplineSet
LCarets2: 1 300 
Ligature2: "Ligatures-1" longs h
EndChar
StartChar: longs_t_r
Encoding: 60330 60330 713
Width: 700
Flags: W
HStem: -246 92<29.4436 68.3467> -196 92<-82.5 -9.5> -46 21G<330 370 480 520> 354 92<275 279 371 450> 426 20G<605 645>
VStem: 79 92<-125 525> 279 92<51.437 354 446 526.803> 454 92<50 58 100 325>
LayerCount: 2
Back
SplineSet
650 350 m 25
 600 400 l 25
 500 300 l 1049
475 50 m 25
 525 0 l 1049
500 375 m 9
 500 25 l 1025
-125 -200 m 1
 -125 -200 -88 -150 -50 -150 c 8
 -19 -150 18 -200 50 -200 c 24
 78 -200 125 -150 125 -150 c 1
 125 550 l 1
 225 650 l 1
 225 650 281 550 325 550 c 1
 325 50 l 1
 375 0 l 1
 475 100 l 1025
250 400 m 1
 475 400 l 25
 525 350 l 1025
EndSplineSet
Fore
SplineSet
204 375 m 1x37
 275 446 l 1
 279 446 l 1
 279 511 l 1
 272 515 263 521 255 529 c 0
 255 530 l 2
 234 551 l 2
 219 566 205 584 195 599 c 1
 171 575 l 1
 171 -125 l 2
 171 -125 170 -126 167 -129 c 2
 96 -200 l 2
 84 -212 48 -246 25 -246 c 0xb7
 -7 -246 -44 -196 -75 -196 c 0x67
 -90 -196 -105 -204 -117 -213 c 2
 -150 -246 l 1xa7
 -171 -225 l 1
 -171 -225 -165 -217 -155 -207 c 2
 -84 -136 l 2
 -84 -135 l 0
 -69 -120 -47 -104 -25 -104 c 0x67
 6 -104 43 -154 75 -154 c 0
 76 -154 78 -154 79 -154 c 2
 79 525 l 1
 250 696 l 1
 271 675 l 1
 271 675 291 640 315 612 c 0
 327 602 339 596 350 596 c 1
 371 575 l 1
 371 446 l 1xb7
 500 446 l 1
 525 421 l 1
 546 400 l 1
 562 383 l 1
 625 446 l 1x2f
 696 375 l 1
 625 304 l 1
 575 354 l 1
 546 325 l 1
 546 50 l 1
 571 25 l 1
 500 -46 l 1
 475 -21 l 1
 429 25 l 1
 454 50 l 1
 454 58 l 1
 350 -46 l 1
 279 25 l 1
 279 354 l 1
 225 354 l 1
 204 375 l 1x37
371 354 m 1
 371 75 l 2
 371 60 392 54 400 46 c 1
 454 100 l 1
 454 275 l 1
 454 350 l 1
 450 354 l 1
 371 354 l 1
EndSplineSet
LCarets2: 2 300 500 
Ligature2: "Ligatures-1" longs t r
EndChar
StartChar: f_f_t
Encoding: 61134 61134 354
Width: 725
GlyphClass: 3
Flags: W
HStem: -246 92<29.4436 68.3467 218.663 268.347> -196 92<-82.5 -9.5> -46 21G<530 570> 354 92<75 79 171 279 371 479 571 625>
VStem: 79 92<-118.846 354 446 525> 279 92<-125 354 446 526.827> 479 92<75 354 446 527.802>
CounterMasks: 1 0e
LayerCount: 2
Back
SplineSet
675 100 m 1
 575 0 l 1
 525 50 l 1
 525 550 l 1
 481 550 425 650 425 650 c 9
 325 550 l 1
 325 -150 l 1
 325 -150 278 -200 250 -200 c 0
 218 -200 156 -150 125 -150 c 1025
-125 -200 m 17
 -125 -200 -88 -150 -50 -150 c 8
 -19 -150 18 -200 50 -200 c 24
 78 -200 125 -150 125 -150 c 1
 125 550 l 1
 225 650 l 1
 225 650 281 550 325 550 c 1025
50 400 m 1
 650 400 l 1053
EndSplineSet
Fore
SplineSet
371 446 m 1x3e
 479 446 l 1
 479 511 l 1
 471 516 463 522 455 530 c 2
 434 551 l 1
 433 552 l 2
 418 567 405 585 395 599 c 1
 371 575 l 1
 371 446 l 1x3e
171 354 m 1
 171 -109 l 1
 204 -122 249 -154 275 -154 c 0
 276 -154 277 -154 279 -154 c 2xbe
 279 354 l 1
 171 354 l 1
171 446 m 1
 279 446 l 1
 279 511 l 1
 271 516 263 521 255 529 c 1
 255 530 l 1
 234 551 l 2
 219 566 205 584 195 599 c 1
 171 575 l 1
 171 446 l 1
4 375 m 1
 75 446 l 1
 79 446 l 1
 79 525 l 1
 250 696 l 1
 271 675 l 1
 271 675 291 640 315 612 c 0
 327 602 339 596 350 596 c 1
 450 696 l 1
 471 675 l 1
 471 675 491 640 515 612 c 0
 527 602 539 596 550 596 c 1
 571 575 l 1
 571 446 l 1
 675 446 l 1
 696 425 l 1
 625 354 l 1
 571 354 l 1
 571 75 l 1
 600 46 l 1
 700 146 l 1
 721 125 l 1
 550 -46 l 1
 479 25 l 1
 479 354 l 1
 371 354 l 1
 371 -125 l 1
 371 -125 370 -126 367 -129 c 2
 296 -200 l 2
 284 -212 248 -246 225 -246 c 0xbe
 193 -246 131 -196 100 -196 c 1x7e
 96 -200 l 2
 84 -212 48 -246 25 -246 c 0xbe
 -7 -246 -44 -196 -75 -196 c 0x7e
 -90 -196 -105 -204 -117 -213 c 2
 -150 -246 l 1xbe
 -171 -225 l 1
 -171 -225 -165 -217 -155 -207 c 2
 -84 -136 l 1
 -84 -135 l 1
 -69 -120 -47 -104 -25 -104 c 0x7e
 6 -104 43 -154 75 -154 c 0
 76 -154 78 -154 79 -154 c 2
 79 354 l 1
 25 354 l 1
 4 375 l 1
EndSplineSet
LCarets2: 2 300 500 
Ligature2: "Ligatures-1" f f t
EndChar
StartChar: t_r
Encoding: 61144 61144 729
Width: 500
Flags: W
HStem: -46 21G<130 170 280 320> 354 92<75 79 171 250> 576 20G<130 170 405 445>
VStem: 79 92<51.437 354 446 525> 254 92<50 58 100 325>
LayerCount: 2
Back
SplineSet
450 350 m 25
 400 400 l 25
 300 300 l 1049
275 50 m 25
 325 0 l 1049
300 375 m 9
 300 25 l 1025
125 550 m 1
 125 50 l 1
 175 0 l 1
 275 100 l 1025
50 400 m 1
 275 400 l 25
 325 350 l 1025
EndSplineSet
Fore
SplineSet
4 375 m 1
 75 446 l 1
 79 446 l 1
 79 525 l 1
 150 596 l 1
 171 575 l 1
 171 446 l 1
 300 446 l 1
 325 421 l 1
 362 383 l 1
 425 446 l 1
 496 375 l 1
 425 304 l 1
 375 354 l 1
 346 325 l 1
 346 50 l 1
 371 25 l 1
 300 -46 l 1
 275 -21 l 1
 254 0 l 1
 229 25 l 1
 254 50 l 1
 254 58 l 1
 150 -46 l 1
 79 25 l 1
 79 354 l 1
 25 354 l 1
 4 375 l 1
171 354 m 1
 171 75 l 2
 171 60 192 54 200 46 c 1
 254 100 l 1
 254 275 l 1
 254 350 l 1
 250 354 l 1
 171 354 l 1
EndSplineSet
LCarets2: 1 300 
Ligature2: "Ligatures-1" t r
EndChar
StartChar: t_t
Encoding: 61145 61145 730
Width: 525
Flags: W
HStem: -46 21G<130 170 330 370> 354 92<75 79 171 279 371 425> 576 20G<130 170 330 370>
VStem: 79 92<51.437 354 446 525> 279 92<51.437 83 125 354 446 525>
LayerCount: 2
Back
SplineSet
325 550 m 1
 325 50 l 1
 375 0 l 1
 475 100 l 1025
50 400 m 1
 450 400 l 1041
125 550 m 1
 125 50 l 1
 175 0 l 1
 275 100 l 1025
EndSplineSet
Fore
SplineSet
150 596 m 1
 171 575 l 1
 171 446 l 1
 279 446 l 1
 279 525 l 1
 350 596 l 1
 371 575 l 1
 371 446 l 1
 475 446 l 1
 496 425 l 1
 425 354 l 1
 371 354 l 1
 371 75 l 2
 371 60 392 54 400 46 c 1
 500 146 l 1
 521 125 l 1
 350 -46 l 1
 279 25 l 1
 279 83 l 1
 150 -46 l 1
 79 25 l 1
 79 354 l 1
 25 354 l 1
 4 375 l 1
 75 446 l 1
 79 446 l 1
 79 525 l 1
 150 596 l 1
171 354 m 1
 171 75 l 2
 171 60 192 54 200 46 c 1
 279 125 l 1
 279 354 l 1
 171 354 l 1
EndSplineSet
LCarets2: 1 300 
Ligature2: "Ligatures-1" t t
EndChar
StartChar: t_z
Encoding: 61148 61148 732
Width: 550
Flags: W
HStem: -246 92<358.823 393.347> -196 92<242.5 322.049> -46 21G<130 170> 304 92<172.011 331.636> 426 20G<55 79 422 445> 446 130G<55 79 130 170 422 445>
VStem: 79 92<51.437 306 442 525> 404 92<-125 68>
LayerCount: 2
Back
SplineSet
50 400 m 1
 50 400 76 350 250 350 c 0
 356 350 400 400 400 400 c 1
 450 350 l 1
 300 200 l 1
 450 100 l 1
 450 -150 l 1
 450 -150 403 -200 375 -200 c 0
 343 -200 319 -150 275 -150 c 16
 237 -150 200 -200 200 -200 c 1033
125 550 m 1
 125 50 l 1
 175 0 l 1
 275 100 l 1025
EndSplineSet
Fore
SplineSet
150 596 m 1xbb
 171 575 l 1
 171 404 l 1
 198 399 232 396 275 396 c 0
 365 396 411 432 422 443 c 2
 425 446 l 1
 496 375 l 1
 350 229 l 1
 475 146 l 1
 496 125 l 1
 496 -125 l 1
 496 -125 495 -126 492 -129 c 2
 421 -200 l 2
 409 -212 373 -246 350 -246 c 0xbb
 318 -246 294 -196 250 -196 c 0x73
 235 -196 219 -204 208 -213 c 2
 175 -246 l 1xb3
 154 -225 l 1
 154 -225 160 -217 170 -207 c 2
 240 -136 l 2
 254 -122 277 -104 300 -104 c 0x73
 344 -104 368 -154 400 -154 c 0
 401 -154 402 -154 404 -154 c 2
 404 68 l 1
 320 124 l 1
 150 -46 l 1
 79 25 l 1
 79 322 l 1
 51 331 36 342 30 348 c 2
 9 369 l 2
 5 373 4 375 4 375 c 1
 75 446 l 1
 79 442 l 1
 79 525 l 1
 150 596 l 1xbb
171 306 m 1
 171 75 l 2
 171 60 192 54 200 46 c 1
 295 141 l 1
 275 154 l 1
 254 175 l 1
 404 325 l 1
 375 354 l 1
 374 353 l 2
 366 345 320 304 225 304 c 0
 205 304 187 305 171 306 c 1
EndSplineSet
LCarets2: 1 300 
Ligature2: "Ligatures-1" t z
EndChar
StartChar: a_g
Encoding: 61349 61349 338
Width: 600
GlyphClass: 3
Flags: W
HStem: -246 92<404.444 443.347> -196 92<292.5 365.5> -46 21G<130 170 355.177 395> 426 20G<180 300 405 445 504.459 545> 426 20G<180 300 405 445 504.459 545>
VStem: 54 92<100 150> 254 92<100 179 272 325> 454 92<-125 33 75 327>
CounterMasks: 1 07
LayerCount: 2
Back
SplineSet
125 250 m 17
 100 325 l 1
 175 400 l 1
 300 375 l 1
 300 125 l 9
 175 0 l 1
 100 75 l 1
 100 175 l 1
 175 250 l 1
 175 250 193.964297096 225 250 225 c 3
 269.004218286 225 300 225 300 225 c 1033
250 -200 m 17
 250 -200 287 -150 325 -150 c 8
 356 -150 393 -200 425 -200 c 24
 453 -200 500 -150 500 -150 c 9
 500 400 l 1
 500 400 478 360 450 360 c 24
 422 360 400 400 400 400 c 1
 300 300 l 25
 300 100 l 25
 400 0 l 25
 500 100 l 1041
EndSplineSet
Fore
SplineSet
254 100 m 1x27
 254 179 l 1
 225 179 l 2
 179 179 158 196 152 202 c 2
 150 204 l 1
 146 200 l 1
 146 100 l 1
 200 46 l 1
 254 100 l 1x27
454 33 m 1
 375 -46 l 1
 263 67 l 1
 150 -46 l 1
 54 50 l 1
 54 150 l 1
 200 296 l 1
 204 292 l 2
 211 286 226 276 254 272 c 1
 254 275 l 1
 254 333 l 1
 150 354 l 1
 146 350 l 1
 171 275 l 1
 100 204 l 1
 79 225 l 1
 54 300 l 1
 200 446 l 1
 325 421 l 1
 346 400 l 1
 346 367 l 1
 425 446 l 1
 446 425 l 1
 446 425 449 419 454 413 c 0
 460 409 467 406 475 406 c 0
 479 406 483 407 487 409 c 2
 525 446 l 1
 546 425 l 1
 546 -125 l 1
 546 -125 545 -126 542 -129 c 2
 471 -200 l 2
 459 -212 423 -246 400 -246 c 0xb7
 368 -246 331 -196 300 -196 c 0x67
 285 -196 270 -204 258 -213 c 2
 225 -246 l 1xa7
 204 -225 l 1
 204 -225 210 -217 220 -207 c 2
 290 -136 l 1
 291 -135 l 2
 306 -120 328 -104 350 -104 c 0x67
 381 -104 418 -154 450 -154 c 0
 451 -154 453 -154 454 -154 c 2xa7
 454 33 l 1
454 75 m 1
 454 327 l 1
 446 320 436 314 425 314 c 0
 413 314 402 321 393 330 c 2
 372 351 l 1
 346 325 l 1
 346 150 l 1
 346 125 l 2
 346 83 402 69 425 46 c 1
 454 75 l 1
EndSplineSet
LCarets2: 1 300 
Ligature2: "Historic ligatures-1" a g
EndChar
StartChar: a_thorn
Encoding: 61356 61356 347
Width: 600
Flags: W
HStem: -196 21G<255 295> -46 21G<130 170 205 238 363 395> 426 20G<180 254 405 445> 426 20G<180 254 405 445> 651 20G<280 320>
VStem: 54 92<100 150> 254 92<-125 -19 100 179 272 325 435 575> 454 92<125 314.805>
CounterMasks: 1 07
LayerCount: 2
Back
SplineSet
125 250 m 17
 100 325 l 1
 175 400 l 1
 300 375 l 1
 300 125 l 9
 175 0 l 1
 100 75 l 1
 100 175 l 1
 175 250 l 1
 175 250 193.964297096 225 250 225 c 3
 269.004218286 225 300 225 300 225 c 1033
250 0 m 1
 250 0 296 50 325 50 c 0
 354 50 400 0 400 0 c 9
 500 100 l 1
 500 300 l 25
 400 400 l 1
 300 300 l 1049
275 625 m 25
 325 575 l 1049
300 600 m 1
 300 -150 l 1025
EndSplineSet
Fore
SplineSet
254 100 m 1xcf
 254 179 l 1
 225 179 l 2
 179 179 158 196 152 202 c 2
 150 204 l 1
 146 200 l 1
 146 100 l 1
 200 46 l 1
 254 100 l 1xcf
346 96 m 2
 347 96 349 96 350 96 c 0
 373 96 406 65 419 52 c 2
 425 46 l 1
 454 75 l 1
 454 275 l 2
 454 317 398 331 375 354 c 1
 346 325 l 1
 346 150 l 1
 346 96 l 2
229 600 m 1
 300 671 l 1
 325 646 l 1
 346 625 l 1
 371 600 l 1
 346 575 l 1
 346 400 l 1
 346 367 l 1
 425 446 l 1
 546 325 l 1
 546 125 l 1
 375 -46 l 1
 363 -34 l 2
 358 -30 352 -24 346 -19 c 1
 346 -125 l 1
 275 -196 l 1
 254 -175 l 1
 254 -19 l 1
 248 -24 243 -30 238 -34 c 2
 225 -46 l 1
 204 -25 l 1
 204 -25 206 -23 210 -19 c 2
 254 25 l 1
 254 58 l 1
 150 -46 l 1
 54 50 l 1
 54 150 l 1
 200 296 l 1
 204 292 l 2
 211 286 226 276 254 272 c 1
 254 275 l 1
 254 333 l 1
 150 354 l 1
 146 350 l 1
 171 275 l 1
 100 204 l 1
 79 225 l 1
 54 300 l 1
 200 446 l 1xef
 254 435 l 1
 254 575 l 1
 229 600 l 1
EndSplineSet
LCarets2: 1 300 
Ligature2: "Historic ligatures-1" a thorn
EndChar
StartChar: m.alt
Encoding: 61987 61987 588
Width: 600
Flags: W
HStem: -196 21G<405 445> -46 21G<80 120 280 320> 426 20G<80 120 230 270 430 470> 426 20G<80 120 230 270 430 470>
VStem: 54 92<50 300 342 350> 254 92<50 300> 454 92<-75 331.5>
CounterMasks: 1 0e
AnchorPoint: "abvmark" 300 500 basechar 0
LayerCount: 2
Back
SplineSet
275 50 m 25
 325 0 l 1049
300 25 m 1
 300 325 l 25
 225 400 l 1
 100 275 l 1049
75 50 m 25
 125 0 l 1049
125 350 m 25
 75 400 l 1049
100 375 m 9
 100 25 l 1025
450 -150 m 25
 500 -100 l 1
 500 325 l 9
 425 400 l 1
 300 275 l 1049
EndSplineSet
Fore
SplineSet
425 -196 m 1xee
 404 -175 l 1
 454 -125 l 1
 454 300 l 2
 454 328 416 338 400 354 c 1
 346 300 l 1
 346 50 l 1
 371 25 l 1
 300 -46 l 1
 275 -21 l 1
 254 0 l 1
 229 25 l 1
 254 50 l 1
 254 250 l 1
 254 300 l 2
 254 328 216 338 200 354 c 1
 146 300 l 1
 146 50 l 1
 171 25 l 1
 100 -46 l 1
 75 -21 l 1
 54 0 l 1
 29 25 l 1
 54 50 l 1
 54 250 l 1
 54 350 l 1
 29 375 l 1
 100 446 l 1
 125 421 l 1
 146 400 l 1
 171 375 l 1
 146 350 l 1
 146 342 l 1
 250 446 l 1
 346 350 l 1
 346 342 l 1
 450 446 l 1
 546 350 l 1
 546 -75 l 1
 425 -196 l 1xee
EndSplineSet
EndChar
StartChar: longs_c_h
Encoding: 62714 62714 706
Width: 850
Flags: W
HStem: -246 92<29.4436 68.3467> -196 92<-82.5 -9.5> -46 21G<355 395 530 570 730 770> 426 20G<405 445 680 720> 426 20G<405 445 680 720> 554 21G<263.5 289> 604 42<328.717 351> 651 20G<530 570>
VStem: 79 92<-125 525> 254 92<85.195 275> 504 92<50 83 125 283 367 575> 704 92<50 331.5>
LayerCount: 2
Back
SplineSet
-125 -200 m 17
 -125 -200 -88 -150 -50 -150 c 8
 -19 -150 18 -200 50 -200 c 24
 78 -200 125 -150 125 -150 c 1
 125 550 l 1
 225 650 l 17
 225 650 256 600 300 600 c 24
 328 600 375 650 376 650 c 1033
500 300 m 9
 400 400 l 25
 300 300 l 25
 300 100 l 25
 400 0 l 25
 500 100 l 1041
725 50 m 25
 775 0 l 1049
525 50 m 25
 575 0 l 1049
525 625 m 25
 575 575 l 1049
550 600 m 9
 550 25 l 1049
750 25 m 25
 750 325 l 25
 675 400 l 1
 550 275 l 1049
EndSplineSet
Fore
SplineSet
575 646 m 1x37f0
 596 625 l 1
 621 600 l 1
 596 575 l 1
 596 342 l 1
 700 446 l 1
 796 350 l 1
 796 50 l 1
 821 25 l 1
 750 -46 l 1
 725 -21 l 1
 704 0 l 1
 679 25 l 1
 704 50 l 1
 704 300 l 2
 704 328 666 338 650 354 c 1
 596 300 l 1
 596 50 l 1
 621 25 l 1
 550 -46 l 1
 525 -21 l 1
 504 0 l 1
 479 25 l 1
 504 50 l 1
 504 83 l 1
 375 -46 l 1
 254 75 l 1
 254 275 l 1
 425 446 l 1
 504 367 l 1
 504 575 l 1
 479 600 l 1
 550 671 l 1
 575 646 l 1x37f0
-150 -246 m 1xa7f0
 -171 -225 l 1
 -171 -225 -165 -217 -155 -207 c 2
 -84 -136 l 2
 -84 -135 l 0
 -69 -120 -47 -104 -25 -104 c 0x67f0
 6 -104 43 -154 75 -154 c 0
 76 -154 78 -154 79 -154 c 2
 79 525 l 1
 250 696 l 1
 271 675 l 1
 271 675 274 670 279 664 c 0
 291 654 307 646 325 646 c 0
 353 646 400 696 401 696 c 2
 422 675 l 1
 351 604 l 2
 350 604 303 554 275 554 c 0
 252 554 232 568 219 581 c 0
 218 582 l 2
 198 602 l 1
 171 575 l 1
 171 -125 l 2
 171 -125 170 -126 167 -129 c 2
 96 -200 l 2
 84 -212 48 -246 25 -246 c 0xa7f0
 -7 -246 -44 -196 -75 -196 c 0x67f0
 -90 -196 -105 -204 -117 -213 c 2
 -150 -246 l 1xa7f0
504 250 m 1
 504 283 l 1
 475 254 l 1
 375 354 l 1
 346 325 l 1
 346 125 l 2
 346 83 402 69 425 46 c 1
 504 125 l 1
 504 250 l 1
EndSplineSet
LCarets2: 2 300 550 
Ligature2: "Ligatures-1" longs c h
EndChar
StartChar: longs_k
Encoding: 62716 62716 708
Width: 650
Flags: W
HStem: -246 92<29.4436 68.3467> -196 92<-82.5 -9.5> -46 21G<330 370 530 570> 451 20G<530 570>
VStem: 79 92<-125 525> 304 92<50 207 262 558.728> 504 92<50 170>
LayerCount: 2
Back
SplineSet
525 425 m 25
 575 375 l 1049
350 200 m 1
 550 350 l 9
 550 400 l 1049
450 275 m 1
 550 200 l 1
 550 25 l 1025
525 50 m 25
 575 0 l 1049
325 50 m 25
 375 0 l 1049
-125 -200 m 17
 -125 -200 -88 -150 -50 -150 c 8
 -19 -150 18 -200 50 -200 c 24
 78 -200 125 -150 125 -150 c 1
 125 550 l 1
 225 650 l 1
 225 650 266 600 350 600 c 9
 350 25 l 1025
EndSplineSet
Fore
SplineSet
-150 -246 m 1xbe
 -171 -225 l 1
 -171 -225 -165 -217 -155 -207 c 2
 -84 -136 l 2
 -84 -135 l 0
 -69 -120 -47 -104 -25 -104 c 0x7e
 6 -104 43 -154 75 -154 c 0
 76 -154 78 -154 79 -154 c 2
 79 525 l 1
 250 696 l 1
 258 687 l 2
 274 673 313 646 375 646 c 1
 396 625 l 1
 396 262 l 1
 504 343 l 1
 504 375 l 1
 479 400 l 1
 550 471 l 1
 575 446 l 1
 596 425 l 1
 621 400 l 1
 550 329 l 1
 525 304 l 1
 511 294 l 1
 575 246 l 1
 596 225 l 1
 596 50 l 1
 621 25 l 1
 550 -46 l 1
 525 -21 l 1
 515 -10 l 1
 479 25 l 1
 504 50 l 1
 504 170 l 1
 425 229 l 1
 396 207 l 1
 396 50 l 1
 421 25 l 1
 350 -46 l 1
 325 -21 l 1
 315 -10 l 1
 279 25 l 1
 304 50 l 1
 304 175 l 1
 304 555 l 1
 249 561 215 589 204 600 c 2
 200 604 l 1
 171 575 l 1
 171 -125 l 2
 171 -125 170 -126 167 -129 c 2
 96 -200 l 2
 84 -212 48 -246 25 -246 c 0xbe
 -7 -246 -44 -196 -75 -196 c 0x7e
 -90 -196 -105 -204 -117 -213 c 2
 -150 -246 l 1xbe
EndSplineSet
LCarets2: 1 300 
Ligature2: "Ligatures-1" longs k
EndChar
StartChar: s_t
Encoding: 64262 64262 334
Width: 700
Flags: W
HStem: -46 21G<5 45.7143 155 195 505 545> 4 92<92 161> 304 92<294.927 454> 321 80<546 587.295> 426 20G<205 316.6 640 670> 446 130G<205 316.6 505 545 640 670>
VStem: 454 92<51.437 305 401 525>
LayerCount: 2
Back
SplineSet
50 0 m 1
 50 0 90 50 125 50 c 24
 160 50 200 0 200 0 c 9
 300 100 l 1
 300 160 l 1
 100 240 l 1
 100 300 l 1
 200 400 l 17
 200 400 274.817238291 350 450 350 c 7
 591.127601836 350 625 400 625 400 c 1033
500 550 m 1
 500 50 l 1
 550 0 l 1
 650 100 l 1025
EndSplineSet
Fore
SplineSet
525 596 m 1xea
 546 575 l 1
 546 401 l 1
 600 409 627 426 640 436 c 2
 650 446 l 1
 671 425 l 1
 671 425 670 423 667 420 c 2
 596 350 l 2
 590 344 575 331 546 321 c 1xda
 546 75 l 2
 546 60 567 54 575 46 c 1
 675 146 l 1
 696 125 l 1
 525 -46 l 1
 454 25 l 1
 454 305 l 1
 445 305 435 304 425 304 c 0
 250 304 175 354 175 354 c 1
 146 325 l 1
 146 277 l 1
 325 206 l 1
 346 185 l 1
 346 125 l 1
 175 -46 l 1
 154 -25 l 1
 154 -25 153 -23 151 -21 c 0
 137 -9 117 4 100 4 c 0
 84 4 68 -6 54 -18 c 2
 25 -46 l 1
 4 -25 l 1
 4 -25 10 -18 18 -10 c 2
 88 61 l 2
 103 76 128 96 150 96 c 0
 172 96 196 76 211 61 c 2
 225 47 l 1
 254 75 l 1
 254 123 l 1
 75 194 l 1
 54 215 l 1
 54 275 l 1
 225 446 l 1
 225 446 294 400 454 396 c 1
 454 525 l 1
 525 596 l 1xea
EndSplineSet
LCarets2: 1 400 
Ligature2: "Ligatures-1" s t
EndChar
StartChar: w.alt
Encoding: 65542 -1 784
Width: 600
Flags: W
HStem: -46 21G<155 195 355 395> 426 20G<80 120 280 320 455 495> 426 20G<80 120 280 320 455 495>
VStem: 54 92<85.195 350> 254 92<85.195 350> 454 92<125 348.563>
CounterMasks: 1 1c
AnchorPoint: "abvmark" 300 500 basechar 0
AnchorPoint: "blwmark" 300 0 basechar 0
LayerCount: 2
Back
SplineSet
325 350 m 25
 275 400 l 1049
300 375 m 25
 300 100 l 1
 400 0 l 25
 500 100 l 1
 500 350 l 25
 450 400 l 1049
125 350 m 25
 75 400 l 1049
100 375 m 25
 100 100 l 1
 200 0 l 25
 300 100 l 1025
EndSplineSet
Fore
SplineSet
125 421 m 1xdc
 171 375 l 1
 146 350 l 1
 146 125 l 2
 146 83 202 69 225 46 c 1
 254 75 l 1
 254 350 l 1
 229 375 l 1
 300 446 l 1
 325 421 l 1
 371 375 l 1
 346 350 l 1
 346 125 l 2
 346 83 402 69 425 46 c 1
 454 75 l 1
 454 325 l 2
 454 340 433 346 425 354 c 2
 404 375 l 1
 475 446 l 1
 546 375 l 1
 546 125 l 1
 375 -46 l 1
 275 54 l 1
 175 -46 l 1
 54 75 l 1
 54 350 l 1
 29 375 l 1
 100 446 l 1
 125 421 l 1xdc
EndSplineSet
EndChar
